<?xml version="1.0" encoding="UTF-8"?>
<svg width="212px" height="44px" viewBox="0 0 212 44" version="1.1" xmlns="http://www.w3.org/2000/svg" xmlns:xlink="http://www.w3.org/1999/xlink">
    <title>57542F27-EA8B-4901-93FE-0F8A49284AF5@1x</title>
    <g id="🧱-Components" stroke="none" stroke-width="1" fill="none" fill-rule="evenodd">
        <g id="Components-/-Sign-In-Providers-/-EN---Demo---Sign-Up" transform="translate(0.000000, -96.000000)" fill-rule="nonzero">
            <g id="Export" transform="translate(0.000000, 96.000000)">
                <path d="M61.0791016,27 C62.0634766,27 62.8997396,26.8051758 63.5878906,26.4155273 C64.2760417,26.0258789 64.8012695,25.4596354 65.1635742,24.7167969 C65.5258789,23.9739583 65.7070312,23.0716146 65.7070312,22.0097656 L65.7070312,21.9960938 C65.7070312,20.9661458 65.5247396,20.0888672 65.1601562,19.3642578 C64.7955729,18.6396484 64.2692057,18.0870768 63.5810547,17.706543 C62.8929036,17.3260091 62.0589193,17.1357422 61.0791016,17.1357422 L57.1962891,17.1357422 L57.1962891,27 L61.0791016,27 Z M60.7509766,25.2978516 L59.2607422,25.2978516 L59.2607422,18.8378906 L60.7509766,18.8378906 C61.3479818,18.8378906 61.8595378,18.9620768 62.2856445,19.2104492 C62.7117513,19.4588216 63.0375977,19.8211263 63.2631836,20.2973633 C63.4887695,20.7736003 63.6015625,21.351237 63.6015625,22.0302734 L63.6015625,22.0439453 C63.6015625,22.7412109 63.4910482,23.3325195 63.2700195,23.8178711 C63.0489909,24.3032227 62.7265625,24.671224 62.3027344,24.921875 C61.8789062,25.172526 61.3616536,25.2978516 60.7509766,25.2978516 Z M70.6220703,27.1640625 C71.1735026,27.1640625 71.6508789,27.0934245 72.0541992,26.9521484 C72.4575195,26.8108724 72.7947591,26.6285807 73.065918,26.4052734 C73.3370768,26.1819661 73.5501302,25.941569 73.7050781,25.684082 C73.860026,25.4265951 73.9671224,25.179362 74.0263672,24.9423828 L74.0400391,24.8740234 L72.1806641,24.8740234 L72.1601562,24.9150391 C72.1145833,25.0107422 72.0291341,25.1166992 71.9038086,25.2329102 C71.7784831,25.3491211 71.6132812,25.4505208 71.4082031,25.5371094 C71.203125,25.6236979 70.9547526,25.6669922 70.6630859,25.6669922 C70.3030599,25.6669922 69.9931641,25.5872396 69.7333984,25.4277344 C69.4736328,25.2682292 69.273112,25.0380859 69.1318359,24.7373047 C69.0141059,24.4866536 68.94543,24.193278 68.9258084,23.8571777 L68.921,23.712 L74.1015625,23.7119141 L74.1015625,23.0898438 C74.1015625,22.328776 73.9580078,21.6656901 73.6708984,21.1005859 C73.3837891,20.5354818 72.9736328,20.0957031 72.4404297,19.78125 C71.9072266,19.4667969 71.273763,19.3095703 70.5400391,19.3095703 C69.8108724,19.3095703 69.1762695,19.4713542 68.6362305,19.7949219 C68.0961914,20.1184896 67.6791992,20.5742188 67.3852539,21.1621094 C67.0913086,21.75 66.9443359,22.4427083 66.9443359,23.2402344 L66.9443359,23.2470703 C66.9443359,24.0537109 67.0924479,24.7486979 67.3886719,25.3320312 C67.6848958,25.9153646 68.1075846,26.3665365 68.6567383,26.6855469 C69.2058919,27.0045573 69.8610026,27.1640625 70.6220703,27.1640625 Z M72.188,22.461 L68.94,22.461 L68.9438477,22.4286567 C68.9757487,22.1668656 69.0395508,21.9349501 69.1352539,21.7329102 C69.2788086,21.4298503 69.4747721,21.199707 69.7231445,21.0424805 C69.9715169,20.8852539 70.2552083,20.8066406 70.5742188,20.8066406 C70.8977865,20.8066406 71.1814779,20.8829753 71.425293,21.0356445 C71.6691081,21.1883138 71.8605143,21.4150391 71.9995117,21.7158203 C72.0921766,21.9163411 72.1539533,22.1502821 72.1848416,22.4176432 L72.188,22.461 Z M77.5742188,27 L77.5742188,22.4609375 C77.5742188,22.1738281 77.6311849,21.9174805 77.7451172,21.6918945 C77.8590495,21.4663086 78.0151367,21.2885742 78.2133789,21.1586914 C78.4116211,21.0288086 78.640625,20.9638672 78.9003906,20.9638672 C79.2877604,20.9638672 79.5908203,21.0766602 79.8095703,21.3022461 C80.0283203,21.527832 80.1376953,21.8411458 80.1376953,22.2421875 L80.1376953,27 L82.1337891,27 L82.1337891,22.3720703 C82.1337891,22.0986328 82.1884766,21.8570964 82.2978516,21.6474609 C82.4072266,21.4378255 82.5610352,21.2714844 82.7592773,21.1484375 C82.9575195,21.0253906 83.1910807,20.9638672 83.4599609,20.9638672 C83.8792318,20.9638672 84.1914062,21.0777995 84.3964844,21.3056641 C84.6015625,21.5335286 84.7041016,21.8753255 84.7041016,22.3310547 L84.7041016,27 L86.7001953,27 L86.7001953,21.8320312 C86.7001953,21.3125 86.6010742,20.8647461 86.402832,20.4887695 C86.2045898,20.112793 85.9243164,19.8222656 85.5620117,19.6171875 C85.199707,19.4121094 84.7679036,19.3095703 84.2666016,19.3095703 C83.9156901,19.3095703 83.5898438,19.3676758 83.2890625,19.4838867 C82.9882812,19.6000977 82.726237,19.7618815 82.5029297,19.9692383 C82.2796224,20.1765951 82.1110026,20.4192708 81.9970703,20.6972656 L81.8740234,20.6972656 C81.7692057,20.405599 81.6188151,20.1572266 81.4228516,19.9521484 C81.226888,19.7470703 80.9899089,19.5887044 80.7119141,19.4770508 C80.4339193,19.3653971 80.1240234,19.3095703 79.7822266,19.3095703 C79.2900391,19.3095703 78.859375,19.4269206 78.4902344,19.6616211 C78.1210938,19.8963216 77.8567708,20.2255859 77.6972656,20.6494141 L77.5742188,20.6494141 L77.5742188,19.4736328 L75.578125,19.4736328 L75.578125,27 L77.5742188,27 Z M91.8203125,27.1640625 C92.5950521,27.1640625 93.2592773,27.0068359 93.8129883,26.6923828 C94.3666992,26.3779297 94.7916667,25.9278971 95.0878906,25.3422852 C95.3841146,24.7566732 95.5322266,24.0559896 95.5322266,23.2402344 L95.5322266,23.2265625 C95.5322266,22.4153646 95.3818359,21.7169596 95.0810547,21.1313477 C94.7802734,20.5457357 94.3530273,20.0957031 93.7993164,19.78125 C93.2456055,19.4667969 92.5859375,19.3095703 91.8203125,19.3095703 C91.0546875,19.3095703 90.3950195,19.4679362 89.8413086,19.784668 C89.2875977,20.1013997 88.8603516,20.5514323 88.5595703,21.1347656 C88.2587891,21.718099 88.1083984,22.4153646 88.1083984,23.2265625 L88.1083984,23.2402344 C88.1083984,24.0559896 88.2565104,24.7566732 88.5527344,25.3422852 C88.8489583,25.9278971 89.2750651,26.3779297 89.8310547,26.6923828 C90.3870443,27.0068359 91.0501302,27.1640625 91.8203125,27.1640625 Z M91.8203125,25.5917969 C91.4648438,25.5917969 91.1629232,25.4995117 90.9145508,25.3149414 C90.6661784,25.1303711 90.4770508,24.8626302 90.347168,24.5117188 C90.2172852,24.1608073 90.1523438,23.7369792 90.1523438,23.2402344 L90.1523438,23.2265625 C90.1523438,22.734375 90.2184245,22.3139648 90.3505859,21.965332 C90.4827474,21.6166992 90.6730143,21.347819 90.9213867,21.1586914 C91.1697591,20.9695638 91.469401,20.875 91.8203125,20.875 C92.171224,20.875 92.4708659,20.9695638 92.7192383,21.1586914 C92.9676107,21.347819 93.1578776,21.6166992 93.2900391,21.965332 C93.4222005,22.3139648 93.4882812,22.734375 93.4882812,23.2265625 L93.4882812,23.2402344 C93.4882812,23.7324219 93.4222005,24.1539714 93.2900391,24.5048828 C93.1578776,24.8557943 92.96875,25.1246745 92.7226562,25.3115234 C92.4765625,25.4983724 92.1757812,25.5917969 91.8203125,25.5917969 Z M104.186523,27.2529297 C105.006836,27.2529297 105.714355,27.1219076 106.309082,26.8598633 C106.903809,26.597819 107.361816,26.2286784 107.683105,25.7524414 C108.004395,25.2762044 108.165039,24.7122396 108.165039,24.0605469 L108.165039,24.0537109 C108.165039,23.2835286 107.926921,22.6774089 107.450684,22.2353516 C106.974447,21.7932943 106.214518,21.4651693 105.170898,21.2509766 L104.125,21.0390625 C103.546224,20.9205729 103.128092,20.7599284 102.870605,20.5571289 C102.613118,20.3543294 102.484375,20.0934245 102.484375,19.7744141 L102.484375,19.7675781 C102.484375,19.5214844 102.555013,19.308431 102.696289,19.128418 C102.837565,18.9484049 103.035807,18.8082682 103.291016,18.7080078 C103.546224,18.6077474 103.842448,18.5576172 104.179688,18.5576172 C104.526042,18.5576172 104.830241,18.6088867 105.092285,18.7114258 C105.354329,18.8139648 105.563965,18.9541016 105.721191,19.1318359 C105.878418,19.3095703 105.977539,19.5169271 106.018555,19.7539062 L106.032227,19.8359375 L107.973633,19.8359375 L107.966797,19.7470703 C107.925781,19.195638 107.750326,18.7045898 107.44043,18.2739258 C107.130534,17.8432617 106.701009,17.5037435 106.151855,17.2553711 C105.602702,17.0069987 104.945312,16.8828125 104.179688,16.8828125 C103.450521,16.8828125 102.803385,17.0092773 102.238281,17.262207 C101.673177,17.5151367 101.228841,17.8694661 100.905273,18.3251953 C100.581706,18.7809245 100.419922,19.3141276 100.419922,19.9248047 L100.419922,19.9316406 C100.419922,20.6790365 100.652344,21.2919922 101.117188,21.7705078 C101.582031,22.2490234 102.327148,22.593099 103.352539,22.8027344 L104.391602,23.0146484 C105.006836,23.1422526 105.445475,23.3040365 105.70752,23.5 C105.969564,23.6959635 106.100586,23.9557292 106.100586,24.2792969 L106.100586,24.2861328 C106.100586,24.5367839 106.021973,24.7589518 105.864746,24.9526367 C105.70752,25.1463216 105.489909,25.2978516 105.211914,25.4072266 C104.933919,25.5166016 104.610352,25.5712891 104.241211,25.5712891 C103.858398,25.5712891 103.51888,25.5188802 103.222656,25.4140625 C102.926432,25.3092448 102.690592,25.1645508 102.515137,24.9799805 C102.339681,24.7954102 102.238281,24.5800781 102.210938,24.3339844 L102.204102,24.265625 L100.214844,24.265625 L100.22168,24.375 C100.262695,24.9583333 100.448405,25.465332 100.778809,25.8959961 C101.109212,26.3266602 101.563802,26.6604818 102.142578,26.8974609 C102.721354,27.1344401 103.402669,27.2529297 104.186523,27.2529297 Z M110.783203,18.3183594 C111.093099,18.3183594 111.357422,18.2101237 111.576172,17.9936523 C111.794922,17.777181 111.904297,17.516276 111.904297,17.2109375 C111.904297,16.9010417 111.794922,16.6378581 111.576172,16.4213867 C111.357422,16.2049154 111.093099,16.0966797 110.783203,16.0966797 C110.477865,16.0966797 110.213542,16.2049154 109.990234,16.4213867 C109.766927,16.6378581 109.655273,16.9010417 109.655273,17.2109375 C109.655273,17.516276 109.766927,17.777181 109.990234,17.9936523 C110.213542,18.2101237 110.477865,18.3183594 110.783203,18.3183594 Z M111.774414,27 L111.774414,19.4736328 L109.77832,19.4736328 L109.77832,27 L111.774414,27 Z M116.956055,29.6455078 C117.717122,29.6455078 118.375651,29.5281576 118.931641,29.293457 C119.48763,29.0587565 119.917155,28.7260742 120.220215,28.2954102 C120.523275,27.8647461 120.674805,27.3554688 120.674805,26.7675781 L120.674805,19.4736328 L118.678711,19.4736328 L118.678711,20.7041016 L118.583008,20.7041016 C118.450846,20.4215495 118.275391,20.180013 118.056641,19.9794922 C117.837891,19.7789714 117.583822,19.6240234 117.294434,19.5146484 C117.005046,19.4052734 116.687174,19.3505859 116.34082,19.3505859 C115.698242,19.3505859 115.145671,19.5055339 114.683105,19.8154297 C114.22054,20.1253255 113.865072,20.5582682 113.616699,21.1142578 C113.368327,21.6702474 113.244141,22.3173828 113.244141,23.0556641 L113.244141,23.0693359 C113.244141,23.7802734 113.368327,24.406901 113.616699,24.9492188 C113.865072,25.4915365 114.218262,25.9142253 114.67627,26.2172852 C115.134277,26.5203451 115.677734,26.671875 116.306641,26.671875 C116.652995,26.671875 116.970866,26.6251628 117.260254,26.5317383 C117.549642,26.4383138 117.80485,26.3004557 118.025879,26.1181641 C118.246908,25.9358724 118.425781,25.7125651 118.5625,25.4482422 L118.685547,25.4482422 L118.685547,26.8496094 C118.685547,27.2871094 118.537435,27.6254883 118.241211,27.8647461 C117.944987,28.1040039 117.530273,28.2236328 116.99707,28.2236328 C116.555013,28.2236328 116.205241,28.1552734 115.947754,28.0185547 C115.690267,27.8818359 115.53418,27.7063802 115.479492,27.4921875 L115.472656,27.4648438 L113.49707,27.4648438 L113.49707,27.4990234 C113.551758,27.9228516 113.720378,28.2965495 114.00293,28.6201172 C114.285482,28.9436849 114.673991,29.1954753 115.168457,29.3754883 C115.662923,29.5555013 116.258789,29.6455078 116.956055,29.6455078 Z M116.983398,25.140625 C116.623372,25.140625 116.318034,25.0528971 116.067383,24.8774414 C115.816732,24.7019857 115.624186,24.4581706 115.489746,24.1459961 C115.355306,23.8338216 115.288086,23.4726562 115.288086,23.0625 L115.288086,23.0488281 C115.288086,22.6341146 115.355306,22.2706706 115.489746,21.9584961 C115.624186,21.6463216 115.816732,21.4036458 116.067383,21.2304688 C116.318034,21.0572917 116.623372,20.9707031 116.983398,20.9707031 C117.343424,20.9707031 117.651042,21.0572917 117.90625,21.2304688 C118.161458,21.4036458 118.358561,21.6474609 118.497559,21.9619141 C118.636556,22.2763672 118.706055,22.6386719 118.706055,23.0488281 L118.706055,23.0625 C118.706055,23.4772135 118.636556,23.8395182 118.497559,24.1494141 C118.358561,24.4593099 118.161458,24.7019857 117.90625,24.8774414 C117.651042,25.0528971 117.343424,25.140625 116.983398,25.140625 Z M124.516602,27 L124.516602,22.6455078 C124.516602,22.3037109 124.576986,22.007487 124.697754,21.7568359 C124.818522,21.5061849 124.989421,21.3113607 125.210449,21.1723633 C125.431478,21.0333659 125.694661,20.9638672 126,20.9638672 C126.473958,20.9638672 126.822591,21.1005859 127.045898,21.3740234 C127.269206,21.6474609 127.380859,22.0507812 127.380859,22.5839844 L127.380859,27 L129.376953,27 L129.376953,22.1328125 C129.376953,21.2304688 129.157064,20.5343424 128.717285,20.0444336 C128.277507,19.5545247 127.638346,19.3095703 126.799805,19.3095703 C126.262044,19.3095703 125.810872,19.4280599 125.446289,19.6650391 C125.081706,19.9020182 124.812826,20.2255859 124.639648,20.6357422 L124.516602,20.6357422 L124.516602,19.4736328 L122.520508,19.4736328 L122.520508,27 L124.516602,27 Z M135.823242,23.9169922 L135.823242,22.1191406 L131.277344,22.1191406 L131.277344,23.9169922 L135.823242,23.9169922 Z M142.112305,27.2529297 C142.959961,27.2529297 143.692546,27.1002604 144.310059,26.7949219 C144.927572,26.4895833 145.403809,26.0623372 145.73877,25.5131836 C146.07373,24.9640299 146.241211,24.3248698 146.241211,23.5957031 L146.241211,17.1357422 L144.176758,17.1357422 L144.176758,23.4111328 C144.176758,24.0491536 143.999023,24.5572917 143.643555,24.9355469 C143.288086,25.3138021 142.777669,25.5029297 142.112305,25.5029297 C141.451497,25.5029297 140.941081,25.3138021 140.581055,24.9355469 C140.221029,24.5572917 140.041016,24.0491536 140.041016,23.4111328 L140.041016,17.1357422 L137.976562,17.1357422 L137.976562,23.5957031 C137.976562,24.3294271 138.146322,24.9697266 138.48584,25.5166016 C138.825358,26.0634766 139.303874,26.4895833 139.921387,26.7949219 C140.5389,27.1002604 141.269206,27.2529297 142.112305,27.2529297 Z M150.274414,29.4951172 L150.274414,25.796875 L150.397461,25.796875 C150.525065,26.0703125 150.699382,26.305013 150.92041,26.5009766 C151.141439,26.6969401 151.398926,26.8496094 151.692871,26.9589844 C151.986816,27.0683594 152.306966,27.1230469 152.65332,27.1230469 C153.286784,27.1230469 153.83138,26.9669596 154.287109,26.6547852 C154.742839,26.3426107 155.09375,25.8971354 155.339844,25.3183594 C155.585938,24.7395833 155.708984,24.046875 155.708984,23.2402344 L155.708984,23.2265625 C155.708984,22.4244792 155.584798,21.7351888 155.336426,21.1586914 C155.088053,20.582194 154.736003,20.1367188 154.280273,19.8222656 C153.824544,19.5078125 153.282227,19.3505859 152.65332,19.3505859 C152.297852,19.3505859 151.974284,19.4018555 151.682617,19.5043945 C151.390951,19.6069336 151.136882,19.7539062 150.92041,19.9453125 C150.703939,20.1367188 150.529622,20.366862 150.397461,20.6357422 L150.274414,20.6357422 L150.274414,19.4736328 L148.27832,19.4736328 L148.27832,29.4951172 L150.274414,29.4951172 Z M151.969727,25.4619141 C151.623372,25.4619141 151.321452,25.3730469 151.063965,25.1953125 C150.806478,25.0175781 150.607096,24.7612305 150.46582,24.4262695 C150.324544,24.0913086 150.253906,23.6959635 150.253906,23.2402344 L150.253906,23.2265625 C150.253906,22.7617188 150.323405,22.3640951 150.462402,22.0336914 C150.6014,21.7032878 150.799642,21.4492188 151.057129,21.2714844 C151.314616,21.09375 151.618815,21.0048828 151.969727,21.0048828 C152.325195,21.0048828 152.629395,21.09375 152.882324,21.2714844 C153.135254,21.4492188 153.331217,21.7044271 153.470215,22.0371094 C153.609212,22.3697917 153.678711,22.766276 153.678711,23.2265625 L153.678711,23.2402344 C153.678711,23.7005208 153.609212,24.0970052 153.470215,24.4296875 C153.331217,24.7623698 153.135254,25.0175781 152.882324,25.1953125 C152.629395,25.3730469 152.325195,25.4619141 151.969727,25.4619141 Z M160.842773,17.1357422 L160.842773,27 L162.907227,27 L162.907,23.89 L164.910156,23.8896484 C165.602865,23.8896484 166.208984,23.750651 166.728516,23.4726562 C167.248047,23.1946615 167.652507,22.8027344 167.941895,22.296875 C168.231283,21.7910156 168.375977,21.1985677 168.375977,20.5195312 L168.375977,20.5058594 C168.375977,19.8313802 168.231283,19.2412109 167.941895,18.7353516 C167.652507,18.2294922 167.248047,17.8364258 166.728516,17.5561523 C166.208984,17.2758789 165.602865,17.1357422 164.910156,17.1357422 L162.907227,17.1357422 L161.875,17.1357422 L160.842773,17.1357422 Z M162.907,18.77 L164.404297,18.7695312 C164.996745,18.7695312 165.458171,18.9199219 165.788574,19.2207031 C166.118978,19.5214844 166.28418,19.9521484 166.28418,20.5126953 L166.28418,20.5263672 C166.28418,21.0869141 166.118978,21.5187174 165.788574,21.8217773 C165.458171,22.1248372 164.996745,22.2763672 164.404297,22.2763672 L162.907,22.277 L162.907,18.77 Z M171.978516,27.1230469 C172.306641,27.1230469 172.61084,27.077474 172.891113,26.9863281 C173.171387,26.8951823 173.41748,26.7664388 173.629395,26.6000977 C173.841309,26.4337565 174.011068,26.234375 174.138672,26.0019531 L174.261719,26.0019531 L174.261719,27 L176.230469,27 L176.230469,21.859375 C176.230469,21.3261719 176.108561,20.8693034 175.864746,20.4887695 C175.620931,20.1082357 175.266602,19.816569 174.801758,19.6137695 C174.336914,19.4109701 173.77181,19.3095703 173.106445,19.3095703 C172.477539,19.3095703 171.924967,19.4007161 171.44873,19.5830078 C170.972493,19.7652995 170.594238,20.0205078 170.313965,20.3486328 C170.033691,20.6767578 169.866211,21.061849 169.811523,21.5039062 L169.804688,21.5654297 L171.650391,21.5654297 L171.664062,21.5380859 C171.741536,21.3147786 171.893066,21.1427409 172.118652,21.0219727 C172.344238,20.9012044 172.637044,20.8408203 172.99707,20.8408203 C173.407227,20.8408203 173.72054,20.9285482 173.937012,21.1040039 C174.153483,21.2794596 174.261719,21.53125 174.261719,21.859375 L174.261,22.48 L172.443359,22.5908203 C171.509115,22.6455078 170.789062,22.8653971 170.283203,23.2504883 C169.777344,23.6355794 169.524414,24.1676432 169.524414,24.8466797 L169.524414,24.8603516 C169.524414,25.3160807 169.629232,25.7137044 169.838867,26.0532227 C170.048503,26.3927409 170.33903,26.6559245 170.710449,26.8427734 C171.081868,27.0296224 171.504557,27.1230469 171.978516,27.1230469 Z M172.648438,25.6601562 C172.302083,25.6601562 172.019531,25.578125 171.800781,25.4140625 C171.582031,25.25 171.472656,25.0244141 171.472656,24.7373047 L171.472656,24.7236328 C171.472656,24.4501953 171.577474,24.233724 171.787109,24.0742188 C171.996745,23.9147135 172.315755,23.8235677 172.744141,23.8007812 L174.261,23.702 L174.261719,24.2587891 C174.261719,24.523112 174.191081,24.7612305 174.049805,24.9731445 C173.908529,25.1850586 173.717122,25.3525391 173.475586,25.4755859 C173.234049,25.5986328 172.958333,25.6601562 172.648438,25.6601562 Z M180.03125,27 L180.03125,22.7890625 C180.03125,22.4335938 180.106445,22.1282552 180.256836,21.8730469 C180.407227,21.6178385 180.621419,21.4207357 180.899414,21.2817383 C181.177409,21.1427409 181.505534,21.0732422 181.883789,21.0732422 C182.038737,21.0732422 182.192546,21.0834961 182.345215,21.1040039 C182.497884,21.1245117 182.649414,21.1529948 182.799805,21.1894531 L182.799805,19.4462891 C182.699544,19.4189453 182.584473,19.3961589 182.45459,19.3779297 C182.324707,19.3597005 182.191406,19.3505859 182.054688,19.3505859 C181.567057,19.3505859 181.15918,19.4633789 180.831055,19.6889648 C180.50293,19.9145508 180.277344,20.2324219 180.154297,20.6425781 L180.03125,20.6425781 L180.03125,19.4736328 L178.035156,19.4736328 L178.035156,27 L180.03125,27 Z M187.099609,27.0273438 C187.295573,27.0273438 187.480143,27.0182292 187.65332,27 C187.826497,26.9817708 187.974609,26.961263 188.097656,26.9384766 L188.097656,25.4550781 C188.001953,25.4641927 187.911947,25.472168 187.827637,25.4790039 C187.743327,25.4858398 187.63737,25.4892578 187.509766,25.4892578 C187.172526,25.4892578 186.927572,25.4106445 186.774902,25.253418 C186.622233,25.0961914 186.545898,24.8489583 186.545898,24.5117188 L186.545898,20.9775391 L188.097656,20.9775391 L188.097656,19.4736328 L186.545898,19.4736328 L186.545898,17.6757812 L184.529297,17.6757812 L184.529297,19.4736328 L183.367188,19.4736328 L183.367188,20.9775391 L184.529297,20.9775391 L184.529297,24.9697266 C184.529297,25.6988932 184.729818,26.2241211 185.130859,26.5454102 C185.531901,26.8666992 186.188151,27.0273438 187.099609,27.0273438 Z M191.597656,27 L191.597656,22.6455078 C191.597656,22.3037109 191.65804,22.007487 191.778809,21.7568359 C191.899577,21.5061849 192.070475,21.3113607 192.291504,21.1723633 C192.512533,21.0333659 192.775716,20.9638672 193.081055,20.9638672 C193.555013,20.9638672 193.903646,21.1005859 194.126953,21.3740234 C194.35026,21.6474609 194.461914,22.0507812 194.461914,22.5839844 L194.461914,27 L196.458008,27 L196.458008,22.1328125 C196.458008,21.2304688 196.238118,20.5343424 195.79834,20.0444336 C195.358561,19.5545247 194.719401,19.3095703 193.880859,19.3095703 C193.343099,19.3095703 192.891927,19.4280599 192.527344,19.6650391 C192.16276,19.9020182 191.89388,20.2255859 191.720703,20.6357422 L191.597656,20.6357422 L191.597656,19.4736328 L189.601562,19.4736328 L189.601562,27 L191.597656,27 Z M201.543945,27.1640625 C202.095378,27.1640625 202.572754,27.0934245 202.976074,26.9521484 C203.379395,26.8108724 203.716634,26.6285807 203.987793,26.4052734 C204.258952,26.1819661 204.472005,25.941569 204.626953,25.684082 C204.781901,25.4265951 204.888997,25.179362 204.948242,24.9423828 L204.961914,24.8740234 L203.102539,24.8740234 L203.082031,24.9150391 C203.036458,25.0107422 202.951009,25.1166992 202.825684,25.2329102 C202.700358,25.3491211 202.535156,25.4505208 202.330078,25.5371094 C202.125,25.6236979 201.876628,25.6669922 201.584961,25.6669922 C201.224935,25.6669922 200.915039,25.5872396 200.655273,25.4277344 C200.395508,25.2682292 200.194987,25.0380859 200.053711,24.7373047 C199.935981,24.4866536 199.867305,24.193278 199.847683,23.8571777 L199.843,23.712 L205.023438,23.7119141 L205.023438,23.0898438 C205.023438,22.328776 204.879883,21.6656901 204.592773,21.1005859 C204.305664,20.5354818 203.895508,20.0957031 203.362305,19.78125 C202.829102,19.4667969 202.195638,19.3095703 201.461914,19.3095703 C200.732747,19.3095703 200.098145,19.4713542 199.558105,19.7949219 C199.018066,20.1184896 198.601074,20.5742188 198.307129,21.1621094 C198.013184,21.75 197.866211,22.4427083 197.866211,23.2402344 L197.866211,23.2470703 C197.866211,24.0537109 198.014323,24.7486979 198.310547,25.3320312 C198.606771,25.9153646 199.02946,26.3665365 199.578613,26.6855469 C200.127767,27.0045573 200.782878,27.1640625 201.543945,27.1640625 Z M203.11,22.461 L199.862,22.461 L199.865723,22.4286567 C199.897624,22.1668656 199.961426,21.9349501 200.057129,21.7329102 C200.200684,21.4298503 200.396647,21.199707 200.64502,21.0424805 C200.893392,20.8852539 201.177083,20.8066406 201.496094,20.8066406 C201.819661,20.8066406 202.103353,20.8829753 202.347168,21.0356445 C202.590983,21.1883138 202.782389,21.4150391 202.921387,21.7158203 C203.014052,21.9163411 203.075828,22.1502821 203.106717,22.4176432 L203.11,22.461 Z M208.496094,27 L208.496094,22.7890625 C208.496094,22.4335938 208.571289,22.1282552 208.72168,21.8730469 C208.87207,21.6178385 209.086263,21.4207357 209.364258,21.2817383 C209.642253,21.1427409 209.970378,21.0732422 210.348633,21.0732422 C210.503581,21.0732422 210.657389,21.0834961 210.810059,21.1040039 C210.962728,21.1245117 211.114258,21.1529948 211.264648,21.1894531 L211.264648,19.4462891 C211.164388,19.4189453 211.049316,19.3961589 210.919434,19.3779297 C210.789551,19.3597005 210.65625,19.3505859 210.519531,19.3505859 C210.031901,19.3505859 209.624023,19.4633789 209.295898,19.6889648 C208.967773,19.9145508 208.742188,20.2324219 208.619141,20.6425781 L208.496094,20.6425781 L208.496094,19.4736328 L206.5,19.4736328 L206.5,27 L208.496094,27 Z" id="DemoSign-UpPartner" fill="#190C21"></path>
                <g id="Group" transform="translate(16.000000, 10.000000)" fill="#000000">
                    <g id="Icon" transform="translate(3.000000, 3.000000)">
                        <path d="M9,0 L16.2174396,3.56512076 L18,11.5758744 L13.0053768,18 L4.99462319,18 L0,11.5758744 L1.78256038,3.56512076 L9,0 Z M9,2 L3.38643585,4.7728717 L2,11.0034578 L5.88470692,16 L12.1152931,16 L16,11.0034578 L14.6135642,4.7728717 L9,2 Z M9,7 C10.1045695,7 11,7.8954305 11,9 C11,10.1045695 10.1045695,11 9,11 C7.8954305,11 7,10.1045695 7,9 C7,7.8954305 7.8954305,7 9,7 Z" id="Combined-Shape"></path>
                    </g>
                </g>
            </g>
        </g>
    </g>
</svg>