<?xml version="1.0" encoding="UTF-8"?>
<svg width="206px" height="44px" viewBox="0 0 206 44" version="1.1" xmlns="http://www.w3.org/2000/svg" xmlns:xlink="http://www.w3.org/1999/xlink">
    <title>D64F5525-734C-4C18-BBB2-98395D0889B2@1x</title>
    <g id="🧱-Components" stroke="none" stroke-width="1" fill="none" fill-rule="evenodd">
        <g id="Components-/-Sign-In-Providers-/-EN---Demo---Sign-In" transform="translate(0.000000, -96.000000)" fill-rule="nonzero">
            <g id="Demo-Sign-In" transform="translate(0.000000, 96.000000)">
                <g id="Content" transform="translate(16.000000, 10.000000)">
                    <path d="M45.0791016,17 C46.0634766,17 46.8997396,16.8051758 47.5878906,16.4155273 C48.2760417,16.0258789 48.8012695,15.4596354 49.1635742,14.7167969 C49.5258789,13.9739583 49.7070312,13.0716146 49.7070312,12.0097656 L49.7070312,11.9960938 C49.7070312,10.9661458 49.5247396,10.0888672 49.1601562,9.36425781 C48.7955729,8.63964844 48.2692057,8.08707682 47.5810547,7.70654297 C46.8929036,7.32600911 46.0589193,7.13574219 45.0791016,7.13574219 L41.1962891,7.13574219 L41.1962891,17 L45.0791016,17 Z M44.7509766,15.2978516 L43.2607422,15.2978516 L43.2607422,8.83789063 L44.7509766,8.83789063 C45.3479818,8.83789063 45.8595378,8.96207682 46.2856445,9.21044922 C46.7117513,9.45882161 47.0375977,9.8211263 47.2631836,10.2973633 C47.4887695,10.7736003 47.6015625,11.351237 47.6015625,12.0302734 L47.6015625,12.0439453 C47.6015625,12.7412109 47.4910482,13.3325195 47.2700195,13.8178711 C47.0489909,14.3032227 46.7265625,14.671224 46.3027344,14.921875 C45.8789062,15.172526 45.3616536,15.2978516 44.7509766,15.2978516 Z M54.6220703,17.1640625 C55.1735026,17.1640625 55.6508789,17.0934245 56.0541992,16.9521484 C56.4575195,16.8108724 56.7947591,16.6285807 57.065918,16.4052734 C57.3370768,16.1819661 57.5501302,15.941569 57.7050781,15.684082 C57.860026,15.4265951 57.9671224,15.179362 58.0263672,14.9423828 L58.0400391,14.8740234 L56.1806641,14.8740234 L56.1601562,14.9150391 C56.1145833,15.0107422 56.0291341,15.1166992 55.9038086,15.2329102 C55.7784831,15.3491211 55.6132812,15.4505208 55.4082031,15.5371094 C55.203125,15.6236979 54.9547526,15.6669922 54.6630859,15.6669922 C54.3030599,15.6669922 53.9931641,15.5872396 53.7333984,15.4277344 C53.4736328,15.2682292 53.273112,15.0380859 53.1318359,14.7373047 C53.0141059,14.4866536 52.94543,14.193278 52.9258084,13.8571777 L52.921,13.712 L58.1015625,13.7119141 L58.1015625,13.0898438 C58.1015625,12.328776 57.9580078,11.6656901 57.6708984,11.1005859 C57.3837891,10.5354818 56.9736328,10.0957031 56.4404297,9.78125 C55.9072266,9.46679688 55.273763,9.30957031 54.5400391,9.30957031 C53.8108724,9.30957031 53.1762695,9.47135417 52.6362305,9.79492188 C52.0961914,10.1184896 51.6791992,10.5742188 51.3852539,11.1621094 C51.0913086,11.75 50.9443359,12.4427083 50.9443359,13.2402344 L50.9443359,13.2470703 C50.9443359,14.0537109 51.0924479,14.7486979 51.3886719,15.3320313 C51.6848958,15.9153646 52.1075846,16.3665365 52.6567383,16.6855469 C53.2058919,17.0045573 53.8610026,17.1640625 54.6220703,17.1640625 Z M56.188,12.461 L52.94,12.461 L52.9438477,12.4286567 C52.9757487,12.1668656 53.0395508,11.9349501 53.1352539,11.7329102 C53.2788086,11.4298503 53.4747721,11.199707 53.7231445,11.0424805 C53.9715169,10.8852539 54.2552083,10.8066406 54.5742188,10.8066406 C54.8977865,10.8066406 55.1814779,10.8829753 55.425293,11.0356445 C55.6691081,11.1883138 55.8605143,11.4150391 55.9995117,11.7158203 C56.0921766,11.9163411 56.1539533,12.1502821 56.1848416,12.4176432 L56.188,12.461 Z M61.5742188,17 L61.5742188,12.4609375 C61.5742188,12.1738281 61.6311849,11.9174805 61.7451172,11.6918945 C61.8590495,11.4663086 62.0151367,11.2885742 62.2133789,11.1586914 C62.4116211,11.0288086 62.640625,10.9638672 62.9003906,10.9638672 C63.2877604,10.9638672 63.5908203,11.0766602 63.8095703,11.3022461 C64.0283203,11.527832 64.1376953,11.8411458 64.1376953,12.2421875 L64.1376953,17 L66.1337891,17 L66.1337891,12.3720703 C66.1337891,12.0986328 66.1884766,11.8570964 66.2978516,11.6474609 C66.4072266,11.4378255 66.5610352,11.2714844 66.7592773,11.1484375 C66.9575195,11.0253906 67.1910807,10.9638672 67.4599609,10.9638672 C67.8792318,10.9638672 68.1914062,11.0777995 68.3964844,11.3056641 C68.6015625,11.5335286 68.7041016,11.8753255 68.7041016,12.3310547 L68.7041016,17 L70.7001953,17 L70.7001953,11.8320313 C70.7001953,11.3125 70.6010742,10.8647461 70.402832,10.4887695 C70.2045898,10.112793 69.9243164,9.82226563 69.5620117,9.6171875 C69.199707,9.41210938 68.7679036,9.30957031 68.2666016,9.30957031 C67.9156901,9.30957031 67.5898438,9.36767578 67.2890625,9.48388672 C66.9882812,9.60009766 66.726237,9.76188151 66.5029297,9.96923828 C66.2796224,10.1765951 66.1110026,10.4192708 65.9970703,10.6972656 L65.8740234,10.6972656 C65.7692057,10.405599 65.6188151,10.1572266 65.4228516,9.95214844 C65.226888,9.74707031 64.9899089,9.58870443 64.7119141,9.47705078 C64.4339193,9.36539714 64.1240234,9.30957031 63.7822266,9.30957031 C63.2900391,9.30957031 62.859375,9.42692057 62.4902344,9.66162109 C62.1210938,9.89632161 61.8567708,10.2255859 61.6972656,10.6494141 L61.5742188,10.6494141 L61.5742188,9.47363281 L59.578125,9.47363281 L59.578125,17 L61.5742188,17 Z M75.8203125,17.1640625 C76.5950521,17.1640625 77.2592773,17.0068359 77.8129883,16.6923828 C78.3666992,16.3779297 78.7916667,15.9278971 79.0878906,15.3422852 C79.3841146,14.7566732 79.5322266,14.0559896 79.5322266,13.2402344 L79.5322266,13.2265625 C79.5322266,12.4153646 79.3818359,11.7169596 79.0810547,11.1313477 C78.7802734,10.5457357 78.3530273,10.0957031 77.7993164,9.78125 C77.2456055,9.46679688 76.5859375,9.30957031 75.8203125,9.30957031 C75.0546875,9.30957031 74.3950195,9.4679362 73.8413086,9.78466797 C73.2875977,10.1013997 72.8603516,10.5514323 72.5595703,11.1347656 C72.2587891,11.718099 72.1083984,12.4153646 72.1083984,13.2265625 L72.1083984,13.2402344 C72.1083984,14.0559896 72.2565104,14.7566732 72.5527344,15.3422852 C72.8489583,15.9278971 73.2750651,16.3779297 73.8310547,16.6923828 C74.3870443,17.0068359 75.0501302,17.1640625 75.8203125,17.1640625 Z M75.8203125,15.5917969 C75.4648438,15.5917969 75.1629232,15.4995117 74.9145508,15.3149414 C74.6661784,15.1303711 74.4770508,14.8626302 74.347168,14.5117188 C74.2172852,14.1608073 74.1523438,13.7369792 74.1523438,13.2402344 L74.1523438,13.2265625 C74.1523438,12.734375 74.2184245,12.3139648 74.3505859,11.965332 C74.4827474,11.6166992 74.6730143,11.347819 74.9213867,11.1586914 C75.1697591,10.9695638 75.469401,10.875 75.8203125,10.875 C76.171224,10.875 76.4708659,10.9695638 76.7192383,11.1586914 C76.9676107,11.347819 77.1578776,11.6166992 77.2900391,11.965332 C77.4222005,12.3139648 77.4882812,12.734375 77.4882812,13.2265625 L77.4882812,13.2402344 C77.4882812,13.7324219 77.4222005,14.1539714 77.2900391,14.5048828 C77.1578776,14.8557943 76.96875,15.1246745 76.7226562,15.3115234 C76.4765625,15.4983724 76.1757812,15.5917969 75.8203125,15.5917969 Z M88.1865234,17.2529297 C89.0068359,17.2529297 89.7143555,17.1219076 90.309082,16.8598633 C90.9038086,16.597819 91.3618164,16.2286784 91.6831055,15.7524414 C92.0043945,15.2762044 92.1650391,14.7122396 92.1650391,14.0605469 L92.1650391,14.0537109 C92.1650391,13.2835286 91.9269206,12.6774089 91.4506836,12.2353516 C90.9744466,11.7932943 90.2145182,11.4651693 89.1708984,11.2509766 L88.125,11.0390625 C87.546224,10.9205729 87.1280924,10.7599284 86.8706055,10.5571289 C86.6131185,10.3543294 86.484375,10.0934245 86.484375,9.77441406 L86.484375,9.76757813 C86.484375,9.52148438 86.555013,9.30843099 86.6962891,9.12841797 C86.8375651,8.94840495 87.0358073,8.80826823 87.2910156,8.70800781 C87.546224,8.6077474 87.8424479,8.55761719 88.1796875,8.55761719 C88.5260417,8.55761719 88.8302409,8.60888672 89.0922852,8.71142578 C89.3543294,8.81396484 89.5639648,8.95410156 89.7211914,9.13183594 C89.878418,9.30957031 89.9775391,9.51692708 90.0185547,9.75390625 L90.0322266,9.8359375 L91.9736328,9.8359375 L91.9667969,9.74707031 C91.9257812,9.19563802 91.7503255,8.70458984 91.4404297,8.27392578 C91.1305339,7.84326172 90.7010091,7.50374349 90.1518555,7.25537109 C89.6027018,7.0069987 88.9453125,6.8828125 88.1796875,6.8828125 C87.4505208,6.8828125 86.8033854,7.00927734 86.2382812,7.26220703 C85.6731771,7.51513672 85.2288411,7.86946615 84.9052734,8.32519531 C84.5817057,8.78092448 84.4199219,9.3141276 84.4199219,9.92480469 L84.4199219,9.93164063 C84.4199219,10.6790365 84.6523438,11.2919922 85.1171875,11.7705078 C85.5820312,12.2490234 86.3271484,12.593099 87.3525391,12.8027344 L88.3916016,13.0146484 C89.0068359,13.1422526 89.4454753,13.3040365 89.7075195,13.5 C89.9695638,13.6959635 90.1005859,13.9557292 90.1005859,14.2792969 L90.1005859,14.2861328 C90.1005859,14.5367839 90.0219727,14.7589518 89.8647461,14.9526367 C89.7075195,15.1463216 89.4899089,15.2978516 89.2119141,15.4072266 C88.9339193,15.5166016 88.6103516,15.5712891 88.2412109,15.5712891 C87.8583984,15.5712891 87.5188802,15.5188802 87.2226562,15.4140625 C86.9264323,15.3092448 86.6905924,15.1645508 86.5151367,14.9799805 C86.339681,14.7954102 86.2382812,14.5800781 86.2109375,14.3339844 L86.2041016,14.265625 L84.2148438,14.265625 L84.2216797,14.375 C84.2626953,14.9583333 84.4484049,15.465332 84.7788086,15.8959961 C85.1092122,16.3266602 85.5638021,16.6604818 86.1425781,16.8974609 C86.7213542,17.1344401 87.4026693,17.2529297 88.1865234,17.2529297 Z M94.7832031,8.31835938 C95.093099,8.31835938 95.3574219,8.2101237 95.5761719,7.99365234 C95.7949219,7.77718099 95.9042969,7.51627604 95.9042969,7.2109375 C95.9042969,6.90104167 95.7949219,6.63785807 95.5761719,6.42138672 C95.3574219,6.20491536 95.093099,6.09667969 94.7832031,6.09667969 C94.4778646,6.09667969 94.2135417,6.20491536 93.9902344,6.42138672 C93.7669271,6.63785807 93.6552734,6.90104167 93.6552734,7.2109375 C93.6552734,7.51627604 93.7669271,7.77718099 93.9902344,7.99365234 C94.2135417,8.2101237 94.4778646,8.31835938 94.7832031,8.31835938 Z M95.7744141,17 L95.7744141,9.47363281 L93.7783203,9.47363281 L93.7783203,17 L95.7744141,17 Z M100.956055,19.6455078 C101.717122,19.6455078 102.375651,19.5281576 102.931641,19.293457 C103.48763,19.0587565 103.917155,18.7260742 104.220215,18.2954102 C104.523275,17.8647461 104.674805,17.3554688 104.674805,16.7675781 L104.674805,9.47363281 L102.678711,9.47363281 L102.678711,10.7041016 L102.583008,10.7041016 C102.450846,10.4215495 102.275391,10.180013 102.056641,9.97949219 C101.837891,9.77897135 101.583822,9.62402344 101.294434,9.51464844 C101.005046,9.40527344 100.687174,9.35058594 100.34082,9.35058594 C99.6982422,9.35058594 99.1456706,9.50553385 98.6831055,9.81542969 C98.2205404,10.1253255 97.8650716,10.5582682 97.6166992,11.1142578 C97.3683268,11.6702474 97.2441406,12.3173828 97.2441406,13.0556641 L97.2441406,13.0693359 C97.2441406,13.7802734 97.3683268,14.406901 97.6166992,14.9492188 C97.8650716,15.4915365 98.2182617,15.9142253 98.6762695,16.2172852 C99.1342773,16.5203451 99.6777344,16.671875 100.306641,16.671875 C100.652995,16.671875 100.970866,16.6251628 101.260254,16.5317383 C101.549642,16.4383138 101.80485,16.3004557 102.025879,16.1181641 C102.246908,15.9358724 102.425781,15.7125651 102.5625,15.4482422 L102.685547,15.4482422 L102.685547,16.8496094 C102.685547,17.2871094 102.537435,17.6254883 102.241211,17.8647461 C101.944987,18.1040039 101.530273,18.2236328 100.99707,18.2236328 C100.555013,18.2236328 100.205241,18.1552734 99.9477539,18.0185547 C99.6902669,17.8818359 99.5341797,17.7063802 99.4794922,17.4921875 L99.4726562,17.4648438 L97.4970703,17.4648438 L97.4970703,17.4990234 C97.5517578,17.9228516 97.7203776,18.2965495 98.0029297,18.6201172 C98.2854818,18.9436849 98.6739909,19.1954753 99.168457,19.3754883 C99.6629232,19.5555013 100.258789,19.6455078 100.956055,19.6455078 Z M100.983398,15.140625 C100.623372,15.140625 100.318034,15.0528971 100.067383,14.8774414 C99.8167318,14.7019857 99.6241862,14.4581706 99.4897461,14.1459961 C99.355306,13.8338216 99.2880859,13.4726563 99.2880859,13.0625 L99.2880859,13.0488281 C99.2880859,12.6341146 99.355306,12.2706706 99.4897461,11.9584961 C99.6241862,11.6463216 99.8167318,11.4036458 100.067383,11.2304688 C100.318034,11.0572917 100.623372,10.9707031 100.983398,10.9707031 C101.343424,10.9707031 101.651042,11.0572917 101.90625,11.2304688 C102.161458,11.4036458 102.358561,11.6474609 102.497559,11.9619141 C102.636556,12.2763672 102.706055,12.6386719 102.706055,13.0488281 L102.706055,13.0625 C102.706055,13.4772135 102.636556,13.8395182 102.497559,14.1494141 C102.358561,14.4593099 102.161458,14.7019857 101.90625,14.8774414 C101.651042,15.0528971 101.343424,15.140625 100.983398,15.140625 Z M108.516602,17 L108.516602,12.6455078 C108.516602,12.3037109 108.576986,12.007487 108.697754,11.7568359 C108.818522,11.5061849 108.989421,11.3113607 109.210449,11.1723633 C109.431478,11.0333659 109.694661,10.9638672 110,10.9638672 C110.473958,10.9638672 110.822591,11.1005859 111.045898,11.3740234 C111.269206,11.6474609 111.380859,12.0507813 111.380859,12.5839844 L111.380859,17 L113.376953,17 L113.376953,12.1328125 C113.376953,11.2304688 113.157064,10.5343424 112.717285,10.0444336 C112.277507,9.55452474 111.638346,9.30957031 110.799805,9.30957031 C110.262044,9.30957031 109.810872,9.4280599 109.446289,9.66503906 C109.081706,9.90201823 108.812826,10.2255859 108.639648,10.6357422 L108.516602,10.6357422 L108.516602,9.47363281 L106.520508,9.47363281 L106.520508,17 L108.516602,17 Z M119.823242,13.9169922 L119.823242,12.1191406 L115.277344,12.1191406 L115.277344,13.9169922 L119.823242,13.9169922 Z M124.047852,17 L124.047852,7.13574219 L121.983398,7.13574219 L121.983398,17 L124.047852,17 Z M128.087891,17 L128.087891,12.6455078 C128.087891,12.3037109 128.148275,12.007487 128.269043,11.7568359 C128.389811,11.5061849 128.56071,11.3113607 128.781738,11.1723633 C129.002767,11.0333659 129.265951,10.9638672 129.571289,10.9638672 C130.045247,10.9638672 130.39388,11.1005859 130.617188,11.3740234 C130.840495,11.6474609 130.952148,12.0507813 130.952148,12.5839844 L130.952148,17 L132.948242,17 L132.948242,12.1328125 C132.948242,11.2304688 132.728353,10.5343424 132.288574,10.0444336 C131.848796,9.55452474 131.209635,9.30957031 130.371094,9.30957031 C129.833333,9.30957031 129.382161,9.4280599 129.017578,9.66503906 C128.652995,9.90201823 128.384115,10.2255859 128.210938,10.6357422 L128.087891,10.6357422 L128.087891,9.47363281 L126.091797,9.47363281 L126.091797,17 L128.087891,17 Z M138.382812,7.13574219 L138.382812,17 L140.447266,17 L140.447,13.89 L142.450195,13.8896484 C143.142904,13.8896484 143.749023,13.750651 144.268555,13.4726563 C144.788086,13.1946615 145.192546,12.8027344 145.481934,12.296875 C145.771322,11.7910156 145.916016,11.1985677 145.916016,10.5195313 L145.916016,10.5058594 C145.916016,9.83138021 145.771322,9.24121094 145.481934,8.73535156 C145.192546,8.22949219 144.788086,7.83642578 144.268555,7.55615234 C143.749023,7.27587891 143.142904,7.13574219 142.450195,7.13574219 L140.447266,7.13574219 L139.415039,7.13574219 L138.382812,7.13574219 Z M140.447,8.77 L141.944336,8.76953125 C142.536784,8.76953125 142.99821,8.91992188 143.328613,9.22070313 C143.659017,9.52148438 143.824219,9.95214844 143.824219,10.5126953 L143.824219,10.5263672 C143.824219,11.0869141 143.659017,11.5187174 143.328613,11.8217773 C142.99821,12.1248372 142.536784,12.2763672 141.944336,12.2763672 L140.447,12.277 L140.447,8.77 Z M149.518555,17.1230469 C149.84668,17.1230469 150.150879,17.077474 150.431152,16.9863281 C150.711426,16.8951823 150.95752,16.7664388 151.169434,16.6000977 C151.381348,16.4337565 151.551107,16.234375 151.678711,16.0019531 L151.801758,16.0019531 L151.801758,17 L153.770508,17 L153.770508,11.859375 C153.770508,11.3261719 153.6486,10.8693034 153.404785,10.4887695 C153.16097,10.1082357 152.806641,9.81656901 152.341797,9.61376953 C151.876953,9.41097005 151.311849,9.30957031 150.646484,9.30957031 C150.017578,9.30957031 149.465007,9.40071615 148.98877,9.58300781 C148.512533,9.76529948 148.134277,10.0205078 147.854004,10.3486328 C147.57373,10.6767578 147.40625,11.061849 147.351562,11.5039063 L147.344727,11.5654297 L149.19043,11.5654297 L149.204102,11.5380859 C149.281576,11.3147786 149.433105,11.1427409 149.658691,11.0219727 C149.884277,10.9012044 150.177083,10.8408203 150.537109,10.8408203 C150.947266,10.8408203 151.260579,10.9285482 151.477051,11.1040039 C151.693522,11.2794596 151.801758,11.53125 151.801758,11.859375 L151.801,12.48 L149.983398,12.5908203 C149.049154,12.6455078 148.329102,12.8653971 147.823242,13.2504883 C147.317383,13.6355794 147.064453,14.1676432 147.064453,14.8466797 L147.064453,14.8603516 C147.064453,15.3160807 147.169271,15.7137044 147.378906,16.0532227 C147.588542,16.3927409 147.879069,16.6559245 148.250488,16.8427734 C148.621908,17.0296224 149.044596,17.1230469 149.518555,17.1230469 Z M150.188477,15.6601563 C149.842122,15.6601563 149.55957,15.578125 149.34082,15.4140625 C149.12207,15.25 149.012695,15.0244141 149.012695,14.7373047 L149.012695,14.7236328 C149.012695,14.4501953 149.117513,14.233724 149.327148,14.0742188 C149.536784,13.9147135 149.855794,13.8235677 150.28418,13.8007813 L151.801,13.702 L151.801758,14.2587891 C151.801758,14.523112 151.73112,14.7612305 151.589844,14.9731445 C151.448568,15.1850586 151.257161,15.3525391 151.015625,15.4755859 C150.774089,15.5986328 150.498372,15.6601563 150.188477,15.6601563 Z M157.571289,17 L157.571289,12.7890625 C157.571289,12.4335938 157.646484,12.1282552 157.796875,11.8730469 C157.947266,11.6178385 158.161458,11.4207357 158.439453,11.2817383 C158.717448,11.1427409 159.045573,11.0732422 159.423828,11.0732422 C159.578776,11.0732422 159.732585,11.0834961 159.885254,11.1040039 C160.037923,11.1245117 160.189453,11.1529948 160.339844,11.1894531 L160.339844,9.44628906 C160.239583,9.41894531 160.124512,9.39615885 159.994629,9.37792969 C159.864746,9.35970052 159.731445,9.35058594 159.594727,9.35058594 C159.107096,9.35058594 158.699219,9.46337891 158.371094,9.68896484 C158.042969,9.91455078 157.817383,10.2324219 157.694336,10.6425781 L157.571289,10.6425781 L157.571289,9.47363281 L155.575195,9.47363281 L155.575195,17 L157.571289,17 Z M164.639648,17.0273438 C164.835612,17.0273438 165.020182,17.0182292 165.193359,17 C165.366536,16.9817708 165.514648,16.961263 165.637695,16.9384766 L165.637695,15.4550781 C165.541992,15.4641927 165.451986,15.472168 165.367676,15.4790039 C165.283366,15.4858398 165.177409,15.4892578 165.049805,15.4892578 C164.712565,15.4892578 164.467611,15.4106445 164.314941,15.253418 C164.162272,15.0961914 164.085938,14.8489583 164.085938,14.5117188 L164.085938,10.9775391 L165.637695,10.9775391 L165.637695,9.47363281 L164.085938,9.47363281 L164.085938,7.67578125 L162.069336,7.67578125 L162.069336,9.47363281 L160.907227,9.47363281 L160.907227,10.9775391 L162.069336,10.9775391 L162.069336,14.9697266 C162.069336,15.6988932 162.269857,16.2241211 162.670898,16.5454102 C163.07194,16.8666992 163.72819,17.0273438 164.639648,17.0273438 Z M169.137695,17 L169.137695,12.6455078 C169.137695,12.3037109 169.198079,12.007487 169.318848,11.7568359 C169.439616,11.5061849 169.610514,11.3113607 169.831543,11.1723633 C170.052572,11.0333659 170.315755,10.9638672 170.621094,10.9638672 C171.095052,10.9638672 171.443685,11.1005859 171.666992,11.3740234 C171.890299,11.6474609 172.001953,12.0507813 172.001953,12.5839844 L172.001953,17 L173.998047,17 L173.998047,12.1328125 C173.998047,11.2304688 173.778158,10.5343424 173.338379,10.0444336 C172.8986,9.55452474 172.25944,9.30957031 171.420898,9.30957031 C170.883138,9.30957031 170.431966,9.4280599 170.067383,9.66503906 C169.702799,9.90201823 169.433919,10.2255859 169.260742,10.6357422 L169.137695,10.6357422 L169.137695,9.47363281 L167.141602,9.47363281 L167.141602,17 L169.137695,17 Z M179.083984,17.1640625 C179.635417,17.1640625 180.112793,17.0934245 180.516113,16.9521484 C180.919434,16.8108724 181.256673,16.6285807 181.527832,16.4052734 C181.798991,16.1819661 182.012044,15.941569 182.166992,15.684082 C182.32194,15.4265951 182.429036,15.179362 182.488281,14.9423828 L182.501953,14.8740234 L180.642578,14.8740234 L180.62207,14.9150391 C180.576497,15.0107422 180.491048,15.1166992 180.365723,15.2329102 C180.240397,15.3491211 180.075195,15.4505208 179.870117,15.5371094 C179.665039,15.6236979 179.416667,15.6669922 179.125,15.6669922 C178.764974,15.6669922 178.455078,15.5872396 178.195312,15.4277344 C177.935547,15.2682292 177.735026,15.0380859 177.59375,14.7373047 C177.47602,14.4866536 177.407344,14.193278 177.387722,13.8571777 L177.383,13.712 L182.563477,13.7119141 L182.563477,13.0898438 C182.563477,12.328776 182.419922,11.6656901 182.132812,11.1005859 C181.845703,10.5354818 181.435547,10.0957031 180.902344,9.78125 C180.369141,9.46679688 179.735677,9.30957031 179.001953,9.30957031 C178.272786,9.30957031 177.638184,9.47135417 177.098145,9.79492188 C176.558105,10.1184896 176.141113,10.5742188 175.847168,11.1621094 C175.553223,11.75 175.40625,12.4427083 175.40625,13.2402344 L175.40625,13.2470703 C175.40625,14.0537109 175.554362,14.7486979 175.850586,15.3320313 C176.14681,15.9153646 176.569499,16.3665365 177.118652,16.6855469 C177.667806,17.0045573 178.322917,17.1640625 179.083984,17.1640625 Z M180.65,12.461 L177.402,12.461 L177.405762,12.4286567 C177.437663,12.1668656 177.501465,11.9349501 177.597168,11.7329102 C177.740723,11.4298503 177.936686,11.199707 178.185059,11.0424805 C178.433431,10.8852539 178.717122,10.8066406 179.036133,10.8066406 C179.359701,10.8066406 179.643392,10.8829753 179.887207,11.0356445 C180.131022,11.1883138 180.322428,11.4150391 180.461426,11.7158203 C180.554091,11.9163411 180.615867,12.1502821 180.646756,12.4176432 L180.65,12.461 Z M186.036133,17 L186.036133,12.7890625 C186.036133,12.4335938 186.111328,12.1282552 186.261719,11.8730469 C186.412109,11.6178385 186.626302,11.4207357 186.904297,11.2817383 C187.182292,11.1427409 187.510417,11.0732422 187.888672,11.0732422 C188.04362,11.0732422 188.197428,11.0834961 188.350098,11.1040039 C188.502767,11.1245117 188.654297,11.1529948 188.804688,11.1894531 L188.804688,9.44628906 C188.704427,9.41894531 188.589355,9.39615885 188.459473,9.37792969 C188.32959,9.35970052 188.196289,9.35058594 188.05957,9.35058594 C187.57194,9.35058594 187.164062,9.46337891 186.835938,9.68896484 C186.507812,9.91455078 186.282227,10.2324219 186.15918,10.6425781 L186.036133,10.6425781 L186.036133,9.47363281 L184.040039,9.47363281 L184.040039,17 L186.036133,17 Z" id="DemoSign-InPartner" fill="#190C21"></path>
                    <g id="Icon" fill="#000000" transform="translate(3.000000, 3.000000)">
                        <path d="M9,0 L16.2174396,3.56512076 L18,11.5758744 L13.0053768,18 L4.99462319,18 L0,11.5758744 L1.78256038,3.56512076 L9,0 Z M9,2 L3.38643585,4.7728717 L2,11.0034578 L5.88470692,16 L12.1152931,16 L16,11.0034578 L14.6135642,4.7728717 L9,2 Z M9,7 C10.1045695,7 11,7.8954305 11,9 C11,10.1045695 10.1045695,11 9,11 C7.8954305,11 7,10.1045695 7,9 C7,7.8954305 7.8954305,7 9,7 Z" id="Combined-Shape"></path>
                    </g>
                </g>
            </g>
        </g>
    </g>
</svg>