<?xml version="1.0" encoding="UTF-8"?>
<svg width="192px" height="44px" viewBox="0 0 192 44" version="1.1" xmlns="http://www.w3.org/2000/svg" xmlns:xlink="http://www.w3.org/1999/xlink">
    <title>F18499CB-9EC1-409D-87F4-4531C230DE02@1x</title>
    <g id="🧱-Components" stroke="none" stroke-width="1" fill="none" fill-rule="evenodd">
        <g id="Components-/-Sign-In-Providers-/-FR---Demo---Sign-In" transform="translate(0.000000, -96.000000)" fill-rule="nonzero">
            <g id="Export" transform="translate(0.000000, 96.000000)">
                <path d="M61.3867188,27.2529297 C62.1842448,27.2529297 62.890625,27.105957 63.5058594,26.8120117 C64.1210938,26.5180664 64.6178385,26.1113281 64.9960938,25.5917969 C65.374349,25.0722656 65.5999349,24.4684245 65.6728516,23.7802734 L65.6728516,23.6982422 L63.6630859,23.6982422 L63.6494141,23.7597656 C63.5810547,24.1106771 63.4431966,24.4171549 63.2358398,24.6791992 C63.0284831,24.9412435 62.7687174,25.144043 62.456543,25.2875977 C62.1443685,25.4311523 61.7900391,25.5029297 61.3935547,25.5029297 C60.8740234,25.5029297 60.4251302,25.3639323 60.046875,25.0859375 C59.6686198,24.8079427 59.3780924,24.4114583 59.175293,23.8964844 C58.9724935,23.3815104 58.8710938,22.773112 58.8710938,22.0712891 L58.8710938,22.0576172 C58.8710938,21.351237 58.9724935,20.7416992 59.175293,20.2290039 C59.3780924,19.7163086 59.6686198,19.3221029 60.046875,19.0463867 C60.4251302,18.7706706 60.8717448,18.6328125 61.3867188,18.6328125 C61.7786458,18.6328125 62.1329753,18.7102865 62.449707,18.8652344 C62.7664388,19.0201823 63.0296224,19.237793 63.2392578,19.5180664 C63.4488932,19.7983398 63.5878906,20.1230469 63.65625,20.4921875 L63.6630859,20.5400391 L65.6660156,20.5400391 L65.6660156,20.4511719 C65.6022135,19.7584635 65.3789062,19.1432292 64.9960938,18.6054688 C64.6132812,18.0677083 64.1108398,17.6461589 63.4887695,17.3408203 C62.8666992,17.0354818 62.1660156,16.8828125 61.3867188,16.8828125 C60.4296875,16.8828125 59.605957,17.0913086 58.9155273,17.5083008 C58.2250977,17.925293 57.6930339,18.5211589 57.3193359,19.2958984 C56.945638,20.070638 56.7587891,20.9912109 56.7587891,22.0576172 L56.7587891,22.0712891 C56.7587891,23.1376953 56.945638,24.0582682 57.3193359,24.8330078 C57.6930339,25.6077474 58.226237,26.2047526 58.9189453,26.6240234 C59.6116536,27.0432943 60.4342448,27.2529297 61.3867188,27.2529297 Z M70.5673828,27.1640625 C71.3421224,27.1640625 72.0063477,27.0068359 72.5600586,26.6923828 C73.1137695,26.3779297 73.538737,25.9278971 73.8349609,25.3422852 C74.1311849,24.7566732 74.2792969,24.0559896 74.2792969,23.2402344 L74.2792969,23.2265625 C74.2792969,22.4153646 74.1289062,21.7169596 73.828125,21.1313477 C73.5273438,20.5457357 73.1000977,20.0957031 72.5463867,19.78125 C71.9926758,19.4667969 71.3330078,19.3095703 70.5673828,19.3095703 C69.8017578,19.3095703 69.1420898,19.4679362 68.5883789,19.784668 C68.034668,20.1013997 67.6074219,20.5514323 67.3066406,21.1347656 C67.0058594,21.718099 66.8554688,22.4153646 66.8554688,23.2265625 L66.8554688,23.2402344 C66.8554688,24.0559896 67.0035807,24.7566732 67.2998047,25.3422852 C67.5960286,25.9278971 68.0221354,26.3779297 68.578125,26.6923828 C69.1341146,27.0068359 69.7972005,27.1640625 70.5673828,27.1640625 Z M70.5673828,25.5917969 C70.2119141,25.5917969 69.9099935,25.4995117 69.6616211,25.3149414 C69.4132487,25.1303711 69.2241211,24.8626302 69.0942383,24.5117188 C68.9643555,24.1608073 68.8994141,23.7369792 68.8994141,23.2402344 L68.8994141,23.2265625 C68.8994141,22.734375 68.9654948,22.3139648 69.0976562,21.965332 C69.2298177,21.6166992 69.4200846,21.347819 69.668457,21.1586914 C69.9168294,20.9695638 70.2164714,20.875 70.5673828,20.875 C70.9182943,20.875 71.2179362,20.9695638 71.4663086,21.1586914 C71.714681,21.347819 71.9049479,21.6166992 72.0371094,21.965332 C72.1692708,22.3139648 72.2353516,22.734375 72.2353516,23.2265625 L72.2353516,23.2402344 C72.2353516,23.7324219 72.1692708,24.1539714 72.0371094,24.5048828 C71.9049479,24.8557943 71.7158203,25.1246745 71.4697266,25.3115234 C71.2236328,25.4983724 70.9228516,25.5917969 70.5673828,25.5917969 Z M77.7451172,27 L77.7451172,22.6455078 C77.7451172,22.3037109 77.8055013,22.007487 77.9262695,21.7568359 C78.0470378,21.5061849 78.2179362,21.3113607 78.4389648,21.1723633 C78.6599935,21.0333659 78.9231771,20.9638672 79.2285156,20.9638672 C79.702474,20.9638672 80.0511068,21.1005859 80.2744141,21.3740234 C80.4977214,21.6474609 80.609375,22.0507812 80.609375,22.5839844 L80.609375,27 L82.6054688,27 L82.6054688,22.1328125 C82.6054688,21.2304688 82.3855794,20.5343424 81.9458008,20.0444336 C81.5060221,19.5545247 80.866862,19.3095703 80.0283203,19.3095703 C79.4905599,19.3095703 79.039388,19.4280599 78.6748047,19.6650391 C78.3102214,19.9020182 78.0413411,20.2255859 77.8681641,20.6357422 L77.7451172,20.6357422 L77.7451172,19.4736328 L75.7490234,19.4736328 L75.7490234,27 L77.7451172,27 Z M86.3789062,27 L86.3789062,22.6455078 C86.3789062,22.3037109 86.4392904,22.007487 86.5600586,21.7568359 C86.6808268,21.5061849 86.8517253,21.3113607 87.0727539,21.1723633 C87.2937826,21.0333659 87.5569661,20.9638672 87.8623047,20.9638672 C88.336263,20.9638672 88.6848958,21.1005859 88.9082031,21.3740234 C89.1315104,21.6474609 89.2431641,22.0507812 89.2431641,22.5839844 L89.2431641,27 L91.2392578,27 L91.2392578,22.1328125 C91.2392578,21.2304688 91.0193685,20.5343424 90.5795898,20.0444336 C90.1398112,19.5545247 89.500651,19.3095703 88.6621094,19.3095703 C88.124349,19.3095703 87.6731771,19.4280599 87.3085938,19.6650391 C86.9440104,19.9020182 86.6751302,20.2255859 86.5019531,20.6357422 L86.3789062,20.6357422 L86.3789062,19.4736328 L84.3828125,19.4736328 L84.3828125,27 L86.3789062,27 Z M96.3251953,27.1640625 C96.8766276,27.1640625 97.3540039,27.0934245 97.7573242,26.9521484 C98.1606445,26.8108724 98.4978841,26.6285807 98.769043,26.4052734 C99.0402018,26.1819661 99.2532552,25.941569 99.4082031,25.684082 C99.563151,25.4265951 99.6702474,25.179362 99.7294922,24.9423828 L99.7431641,24.8740234 L97.8837891,24.8740234 L97.8632812,24.9150391 C97.8177083,25.0107422 97.7322591,25.1166992 97.6069336,25.2329102 C97.4816081,25.3491211 97.3164062,25.4505208 97.1113281,25.5371094 C96.90625,25.6236979 96.6578776,25.6669922 96.3662109,25.6669922 C96.0061849,25.6669922 95.6962891,25.5872396 95.4365234,25.4277344 C95.1767578,25.2682292 94.976237,25.0380859 94.8349609,24.7373047 C94.7172309,24.4866536 94.648555,24.193278 94.6289334,23.8571777 L94.624,23.712 L99.8046875,23.7119141 L99.8046875,23.0898438 C99.8046875,22.328776 99.6611328,21.6656901 99.3740234,21.1005859 C99.0869141,20.5354818 98.6767578,20.0957031 98.1435547,19.78125 C97.6103516,19.4667969 96.976888,19.3095703 96.2431641,19.3095703 C95.5139974,19.3095703 94.8793945,19.4713542 94.3393555,19.7949219 C93.7993164,20.1184896 93.3823242,20.5742188 93.0883789,21.1621094 C92.7944336,21.75 92.6474609,22.4427083 92.6474609,23.2402344 L92.6474609,23.2470703 C92.6474609,24.0537109 92.7955729,24.7486979 93.0917969,25.3320312 C93.3880208,25.9153646 93.8107096,26.3665365 94.3598633,26.6855469 C94.9090169,27.0045573 95.5641276,27.1640625 96.3251953,27.1640625 Z M97.891,22.461 L94.643,22.461 L94.6469727,22.4286567 C94.6788737,22.1668656 94.7426758,21.9349501 94.8383789,21.7329102 C94.9819336,21.4298503 95.1778971,21.199707 95.4262695,21.0424805 C95.6746419,20.8852539 95.9583333,20.8066406 96.2773438,20.8066406 C96.6009115,20.8066406 96.8846029,20.8829753 97.128418,21.0356445 C97.3722331,21.1883138 97.5636393,21.4150391 97.7026367,21.7158203 C97.7953016,21.9163411 97.8570783,22.1502821 97.8879666,22.4176432 L97.891,22.461 Z M102.839844,27 L104.241211,24.5117188 L104.364258,24.5117188 L105.772461,27 L107.980469,27 L105.594727,23.1923828 L107.966797,19.4736328 L105.792969,19.4736328 L104.459961,21.96875 L104.336914,21.96875 L103.003906,19.4736328 L100.713867,19.4736328 L103.092773,23.2744141 L100.734375,27 L102.839844,27 Z M110.277344,18.3183594 C110.58724,18.3183594 110.851562,18.2101237 111.070312,17.9936523 C111.289062,17.777181 111.398438,17.516276 111.398438,17.2109375 C111.398438,16.9010417 111.289062,16.6378581 111.070312,16.4213867 C110.851562,16.2049154 110.58724,16.0966797 110.277344,16.0966797 C109.972005,16.0966797 109.707682,16.2049154 109.484375,16.4213867 C109.261068,16.6378581 109.149414,16.9010417 109.149414,17.2109375 C109.149414,17.516276 109.261068,17.777181 109.484375,17.9936523 C109.707682,18.2101237 109.972005,18.3183594 110.277344,18.3183594 Z M111.268555,27 L111.268555,19.4736328 L109.272461,19.4736328 L109.272461,27 L111.268555,27 Z M116.470703,27.1640625 C117.245443,27.1640625 117.909668,27.0068359 118.463379,26.6923828 C119.01709,26.3779297 119.442057,25.9278971 119.738281,25.3422852 C120.034505,24.7566732 120.182617,24.0559896 120.182617,23.2402344 L120.182617,23.2265625 C120.182617,22.4153646 120.032227,21.7169596 119.731445,21.1313477 C119.430664,20.5457357 119.003418,20.0957031 118.449707,19.78125 C117.895996,19.4667969 117.236328,19.3095703 116.470703,19.3095703 C115.705078,19.3095703 115.04541,19.4679362 114.491699,19.784668 C113.937988,20.1013997 113.510742,20.5514323 113.209961,21.1347656 C112.90918,21.718099 112.758789,22.4153646 112.758789,23.2265625 L112.758789,23.2402344 C112.758789,24.0559896 112.906901,24.7566732 113.203125,25.3422852 C113.499349,25.9278971 113.925456,26.3779297 114.481445,26.6923828 C115.037435,27.0068359 115.700521,27.1640625 116.470703,27.1640625 Z M116.470703,25.5917969 C116.115234,25.5917969 115.813314,25.4995117 115.564941,25.3149414 C115.316569,25.1303711 115.127441,24.8626302 114.997559,24.5117188 C114.867676,24.1608073 114.802734,23.7369792 114.802734,23.2402344 L114.802734,23.2265625 C114.802734,22.734375 114.868815,22.3139648 115.000977,21.965332 C115.133138,21.6166992 115.323405,21.347819 115.571777,21.1586914 C115.82015,20.9695638 116.119792,20.875 116.470703,20.875 C116.821615,20.875 117.121257,20.9695638 117.369629,21.1586914 C117.618001,21.347819 117.808268,21.6166992 117.94043,21.965332 C118.072591,22.3139648 118.138672,22.734375 118.138672,23.2265625 L118.138672,23.2402344 C118.138672,23.7324219 118.072591,24.1539714 117.94043,24.5048828 C117.808268,24.8557943 117.619141,25.1246745 117.373047,25.3115234 C117.126953,25.4983724 116.826172,25.5917969 116.470703,25.5917969 Z M123.648438,27 L123.648438,22.6455078 C123.648438,22.3037109 123.708822,22.007487 123.82959,21.7568359 C123.950358,21.5061849 124.121257,21.3113607 124.342285,21.1723633 C124.563314,21.0333659 124.826497,20.9638672 125.131836,20.9638672 C125.605794,20.9638672 125.954427,21.1005859 126.177734,21.3740234 C126.401042,21.6474609 126.512695,22.0507812 126.512695,22.5839844 L126.512695,27 L128.508789,27 L128.508789,22.1328125 C128.508789,21.2304688 128.2889,20.5343424 127.849121,20.0444336 C127.409342,19.5545247 126.770182,19.3095703 125.931641,19.3095703 C125.39388,19.3095703 124.942708,19.4280599 124.578125,19.6650391 C124.213542,19.9020182 123.944661,20.2255859 123.771484,20.6357422 L123.648438,20.6357422 L123.648438,19.4736328 L121.652344,19.4736328 L121.652344,27 L123.648438,27 Z M135.795898,27.1230469 C136.124023,27.1230469 136.428223,27.077474 136.708496,26.9863281 C136.98877,26.8951823 137.234863,26.7664388 137.446777,26.6000977 C137.658691,26.4337565 137.828451,26.234375 137.956055,26.0019531 L138.079102,26.0019531 L138.079102,27 L140.047852,27 L140.047852,21.859375 C140.047852,21.3261719 139.925944,20.8693034 139.682129,20.4887695 C139.438314,20.1082357 139.083984,19.816569 138.619141,19.6137695 C138.154297,19.4109701 137.589193,19.3095703 136.923828,19.3095703 C136.294922,19.3095703 135.74235,19.4007161 135.266113,19.5830078 C134.789876,19.7652995 134.411621,20.0205078 134.131348,20.3486328 C133.851074,20.6767578 133.683594,21.061849 133.628906,21.5039062 L133.62207,21.5654297 L135.467773,21.5654297 L135.481445,21.5380859 C135.558919,21.3147786 135.710449,21.1427409 135.936035,21.0219727 C136.161621,20.9012044 136.454427,20.8408203 136.814453,20.8408203 C137.224609,20.8408203 137.537923,20.9285482 137.754395,21.1040039 C137.970866,21.2794596 138.079102,21.53125 138.079102,21.859375 L138.079,22.48 L136.260742,22.5908203 C135.326497,22.6455078 134.606445,22.8653971 134.100586,23.2504883 C133.594727,23.6355794 133.341797,24.1676432 133.341797,24.8466797 L133.341797,24.8603516 C133.341797,25.3160807 133.446615,25.7137044 133.65625,26.0532227 C133.865885,26.3927409 134.156413,26.6559245 134.527832,26.8427734 C134.899251,27.0296224 135.32194,27.1230469 135.795898,27.1230469 Z M136.46582,25.6601562 C136.119466,25.6601562 135.836914,25.578125 135.618164,25.4140625 C135.399414,25.25 135.290039,25.0244141 135.290039,24.7373047 L135.290039,24.7236328 C135.290039,24.4501953 135.394857,24.233724 135.604492,24.0742188 C135.814128,23.9147135 136.133138,23.8235677 136.561523,23.8007812 L138.079,23.701 L138.079102,24.2587891 C138.079102,24.523112 138.008464,24.7612305 137.867188,24.9731445 C137.725911,25.1850586 137.534505,25.3525391 137.292969,25.4755859 C137.051432,25.5986328 136.775716,25.6601562 136.46582,25.6601562 Z M144.34082,27.1640625 C144.878581,27.1640625 145.33431,27.0455729 145.708008,26.8085938 C146.081706,26.5716146 146.352865,26.2480469 146.521484,25.8378906 L146.644531,25.8378906 L146.644531,27 L148.640625,27 L148.640625,19.4736328 L146.644531,19.4736328 L146.644531,23.8212891 C146.644531,24.1585286 146.586426,24.4536133 146.470215,24.706543 C146.354004,24.9594727 146.183105,25.1554362 145.95752,25.2944336 C145.731934,25.433431 145.455078,25.5029297 145.126953,25.5029297 C144.652995,25.5029297 144.310059,25.3662109 144.098145,25.0927734 C143.88623,24.8193359 143.780273,24.4160156 143.780273,23.8828125 L143.780273,19.4736328 L141.78418,19.4736328 L141.78418,24.3408203 C141.78418,24.9378255 141.879883,25.4471029 142.071289,25.8686523 C142.262695,26.2902018 142.548665,26.6114909 142.929199,26.8325195 C143.309733,27.0535482 143.780273,27.1640625 144.34082,27.1640625 Z M156.631836,27.1230469 C157.165039,27.1230469 157.625326,27.0091146 158.012695,26.78125 C158.400065,26.5533854 158.689453,26.2366536 158.880859,25.8310547 L159.003906,25.8310547 L159.003906,27 L161,27 L161,16.5957031 L159.003906,16.5957031 L159.003906,20.6767578 L158.880859,20.6767578 C158.69401,20.2666016 158.401204,19.9430339 158.002441,19.7060547 C157.603678,19.4690755 157.14681,19.3505859 156.631836,19.3505859 C155.993815,19.3505859 155.44694,19.5055339 154.991211,19.8154297 C154.535482,20.1253255 154.18571,20.5696615 153.941895,21.1484375 C153.698079,21.7272135 153.576172,22.4199219 153.576172,23.2265625 L153.576172,23.2402344 C153.576172,24.0423177 153.700358,24.7327474 153.94873,25.3115234 C154.197103,25.8902995 154.550293,26.3369141 155.008301,26.6513672 C155.466309,26.9658203 156.007487,27.1230469 156.631836,27.1230469 Z M157.308594,25.4619141 C156.957682,25.4619141 156.654622,25.3730469 156.399414,25.1953125 C156.144206,25.0175781 155.948242,24.7623698 155.811523,24.4296875 C155.674805,24.0970052 155.606445,23.7005208 155.606445,23.2402344 L155.606445,23.2265625 C155.606445,22.766276 155.674805,22.370931 155.811523,22.0405273 C155.948242,21.7101237 156.145345,21.4549154 156.402832,21.2749023 C156.660319,21.0948893 156.96224,21.0048828 157.308594,21.0048828 C157.659505,21.0048828 157.963704,21.0948893 158.221191,21.2749023 C158.478678,21.4549154 158.676921,21.7101237 158.815918,22.0405273 C158.954915,22.370931 159.024414,22.7685547 159.024414,23.2333984 L159.024414,23.2470703 C159.024414,23.7027995 158.954915,24.0970052 158.815918,24.4296875 C158.676921,24.7623698 158.479818,25.0175781 158.224609,25.1953125 C157.969401,25.3730469 157.664062,25.4619141 157.308594,25.4619141 Z M166.769531,18.4619141 L168.4375,16.0488281 L166.550781,16.0488281 L165.361328,18.4619141 L166.769531,18.4619141 Z M166.222656,27.1640625 C166.774089,27.1640625 167.251465,27.0934245 167.654785,26.9521484 C168.058105,26.8108724 168.395345,26.6285807 168.666504,26.4052734 C168.937663,26.1819661 169.150716,25.941569 169.305664,25.684082 C169.460612,25.4265951 169.567708,25.179362 169.626953,24.9423828 L169.640625,24.8740234 L167.78125,24.8740234 L167.760742,24.9150391 C167.715169,25.0107422 167.62972,25.1166992 167.504395,25.2329102 C167.379069,25.3491211 167.213867,25.4505208 167.008789,25.5371094 C166.803711,25.6236979 166.555339,25.6669922 166.263672,25.6669922 C165.903646,25.6669922 165.59375,25.5872396 165.333984,25.4277344 C165.074219,25.2682292 164.873698,25.0380859 164.732422,24.7373047 C164.614692,24.4866536 164.546016,24.193278 164.526394,23.8571777 L164.522,23.712 L169.702148,23.7119141 L169.702148,23.0898438 C169.702148,22.328776 169.558594,21.6656901 169.271484,21.1005859 C168.984375,20.5354818 168.574219,20.0957031 168.041016,19.78125 C167.507812,19.4667969 166.874349,19.3095703 166.140625,19.3095703 C165.411458,19.3095703 164.776855,19.4713542 164.236816,19.7949219 C163.696777,20.1184896 163.279785,20.5742188 162.98584,21.1621094 C162.691895,21.75 162.544922,22.4427083 162.544922,23.2402344 L162.544922,23.2470703 C162.544922,24.0537109 162.693034,24.7486979 162.989258,25.3320312 C163.285482,25.9153646 163.708171,26.3665365 164.257324,26.6855469 C164.806478,27.0045573 165.461589,27.1640625 166.222656,27.1640625 Z M167.789,22.461 L164.541,22.461 L164.544434,22.4286567 C164.576335,22.1668656 164.640137,21.9349501 164.73584,21.7329102 C164.879395,21.4298503 165.075358,21.199707 165.32373,21.0424805 C165.572103,20.8852539 165.855794,20.8066406 166.174805,20.8066406 C166.498372,20.8066406 166.782064,20.8829753 167.025879,21.0356445 C167.269694,21.1883138 167.4611,21.4150391 167.600098,21.7158203 C167.692763,21.9163411 167.754539,22.1502821 167.785428,22.4176432 L167.789,22.461 Z M173.174805,27 L173.174805,22.4609375 C173.174805,22.1738281 173.231771,21.9174805 173.345703,21.6918945 C173.459635,21.4663086 173.615723,21.2885742 173.813965,21.1586914 C174.012207,21.0288086 174.241211,20.9638672 174.500977,20.9638672 C174.888346,20.9638672 175.191406,21.0766602 175.410156,21.3022461 C175.628906,21.527832 175.738281,21.8411458 175.738281,22.2421875 L175.738281,27 L177.734375,27 L177.734375,22.3720703 C177.734375,22.0986328 177.789062,21.8570964 177.898438,21.6474609 C178.007812,21.4378255 178.161621,21.2714844 178.359863,21.1484375 C178.558105,21.0253906 178.791667,20.9638672 179.060547,20.9638672 C179.479818,20.9638672 179.791992,21.0777995 179.99707,21.3056641 C180.202148,21.5335286 180.304688,21.8753255 180.304688,22.3310547 L180.304688,27 L182.300781,27 L182.300781,21.8320312 C182.300781,21.3125 182.20166,20.8647461 182.003418,20.4887695 C181.805176,20.112793 181.524902,19.8222656 181.162598,19.6171875 C180.800293,19.4121094 180.36849,19.3095703 179.867188,19.3095703 C179.516276,19.3095703 179.19043,19.3676758 178.889648,19.4838867 C178.588867,19.6000977 178.326823,19.7618815 178.103516,19.9692383 C177.880208,20.1765951 177.711589,20.4192708 177.597656,20.6972656 L177.474609,20.6972656 C177.369792,20.405599 177.219401,20.1572266 177.023438,19.9521484 C176.827474,19.7470703 176.590495,19.5887044 176.3125,19.4770508 C176.034505,19.3653971 175.724609,19.3095703 175.382812,19.3095703 C174.890625,19.3095703 174.459961,19.4269206 174.09082,19.6616211 C173.72168,19.8963216 173.457357,20.2255859 173.297852,20.6494141 L173.174805,20.6494141 L173.174805,19.4736328 L171.178711,19.4736328 L171.178711,27 L173.174805,27 Z M187.420898,27.1640625 C188.195638,27.1640625 188.859863,27.0068359 189.413574,26.6923828 C189.967285,26.3779297 190.392253,25.9278971 190.688477,25.3422852 C190.984701,24.7566732 191.132812,24.0559896 191.132812,23.2402344 L191.132812,23.2265625 C191.132812,22.4153646 190.982422,21.7169596 190.681641,21.1313477 C190.380859,20.5457357 189.953613,20.0957031 189.399902,19.78125 C188.846191,19.4667969 188.186523,19.3095703 187.420898,19.3095703 C186.655273,19.3095703 185.995605,19.4679362 185.441895,19.784668 C184.888184,20.1013997 184.460938,20.5514323 184.160156,21.1347656 C183.859375,21.718099 183.708984,22.4153646 183.708984,23.2265625 L183.708984,23.2402344 C183.708984,24.0559896 183.857096,24.7566732 184.15332,25.3422852 C184.449544,25.9278971 184.875651,26.3779297 185.431641,26.6923828 C185.98763,27.0068359 186.650716,27.1640625 187.420898,27.1640625 Z M187.420898,25.5917969 C187.06543,25.5917969 186.763509,25.4995117 186.515137,25.3149414 C186.266764,25.1303711 186.077637,24.8626302 185.947754,24.5117188 C185.817871,24.1608073 185.75293,23.7369792 185.75293,23.2402344 L185.75293,23.2265625 C185.75293,22.734375 185.81901,22.3139648 185.951172,21.965332 C186.083333,21.6166992 186.2736,21.347819 186.521973,21.1586914 C186.770345,20.9695638 187.069987,20.875 187.420898,20.875 C187.77181,20.875 188.071452,20.9695638 188.319824,21.1586914 C188.568197,21.347819 188.758464,21.6166992 188.890625,21.965332 C189.022786,22.3139648 189.088867,22.734375 189.088867,23.2265625 L189.088867,23.2402344 C189.088867,23.7324219 189.022786,24.1539714 188.890625,24.5048828 C188.758464,24.8557943 188.569336,25.1246745 188.323242,25.3115234 C188.077148,25.4983724 187.776367,25.5917969 187.420898,25.5917969 Z" id="Connexionaudémo" fill="#190C21"></path>
                <g id="Group" transform="translate(16.000000, 10.000000)" fill="#000000">
                    <g id="Icon" transform="translate(3.000000, 3.000000)">
                        <path d="M9,0 L16.2174396,3.56512076 L18,11.5758744 L13.0053768,18 L4.99462319,18 L0,11.5758744 L1.78256038,3.56512076 L9,0 Z M9,2 L3.38643585,4.7728717 L2,11.0034578 L5.88470692,16 L12.1152931,16 L16,11.0034578 L14.6135642,4.7728717 L9,2 Z M9,7 C10.1045695,7 11,7.8954305 11,9 C11,10.1045695 10.1045695,11 9,11 C7.8954305,11 7,10.1045695 7,9 C7,7.8954305 7.8954305,7 9,7 Z" id="Combined-Shape"></path>
                    </g>
                </g>
            </g>
        </g>
    </g>
</svg>