<svg width="48" height="48" xmlns="http://www.w3.org/2000/svg"><g fill="none" fill-rule="evenodd"><rect stroke="#FFF" stroke-width="2" opacity=".5" x="1" y="1" width="46" height="46" rx="8"/><path d="M16.031 26.8c0-1.265-1.054-2.3-2.343-2.3-1.29 0-2.344 1.035-2.344 2.3s1.054 2.3 2.344 2.3c1.289 0 2.343-1.035 2.343-2.3Zm.528-4.6H31.44l-1.303-5.132c-.044-.158-.337-.388-.513-.388h-11.25c-.176 0-.469.23-.513.388L16.56 22.2Zm20.097 4.6c0-1.265-1.054-2.3-2.343-2.3-1.29 0-2.344 1.035-2.344 2.3s1.054 2.3 2.343 2.3c1.29 0 2.344-1.035 2.344-2.3ZM39 25.42v5.52c0 .259-.205.46-.469.46h-1.406v1.84c0 1.524-1.26 2.76-2.813 2.76-1.552 0-2.812-1.236-2.812-2.76V31.4h-15v1.84c0 1.524-1.26 2.76-2.813 2.76-1.552 0-2.812-1.236-2.812-2.76V31.4H9.469A.458.458 0 0 1 9 30.94v-5.52c0-1.783 1.465-3.22 3.281-3.22h.41l1.538-6.023C14.684 14.366 16.471 13 18.375 13h11.25c1.904 0 3.691 1.366 4.146 3.177l1.538 6.023h.41c1.816 0 3.281 1.438 3.281 3.22Z" fill="#FFF"/></g></svg>