<svg width="48" height="48" xmlns="http://www.w3.org/2000/svg"><g fill-rule="nonzero" fill="none"><rect stroke="#FFF" stroke-width="2" opacity=".5" x="1" y="1" width="46" height="46" rx="8"/><path d="m20.807 19.245 3.263 3.27a.47.47 0 0 1 0 .662l-.662.662a.47.47 0 0 1-.662 0l-3.263-3.27-2.654 2.655 3.269 3.27a.47.47 0 0 1 0 .662l-.662.662a.47.47 0 0 1-.662 0l-3.27-3.276-1.546 1.547a4.683 4.683 0 0 0-1.348 3.832l.416 3.727-3.89 3.891a.47.47 0 0 0 0 .663l.662.662a.47.47 0 0 0 .662 0l3.885-3.885 3.726.416a4.664 4.664 0 0 0 3.832-1.348l10.657-10.66-7.95-7.951-3.803 3.809Zm18.057-5.468-4.64-4.64a.47.47 0 0 0-.662 0l-.662.661a.47.47 0 0 0 0 .663l1.658 1.658-2.654 2.655-3.317-3.317-.996-.996a.47.47 0 0 0-.662 0l-1.986 1.986a.47.47 0 0 0 0 .662l.996.996 7.95 7.964.997.996a.47.47 0 0 0 .662 0l1.986-1.992a.47.47 0 0 0 0-.662l-4.306-4.307 2.654-2.655 1.658 1.659a.47.47 0 0 0 .662 0l.662-.663a.478.478 0 0 0 0-.668Z" fill="#FFF"/></g></svg>