<svg width="48" height="48" xmlns="http://www.w3.org/2000/svg"><g fill="none" fill-rule="evenodd"><rect stroke="#DBD7DC" fill="#FFF" x=".5" y=".5" width="47" height="47" rx="6"/><path d="m38.172 19.181-13.075-4.017a3.745 3.745 0 0 0-2.194 0L9.828 19.181a1.104 1.104 0 0 0 0 2.137l2.28.7a3.694 3.694 0 0 0-.839 2.2c-.451.258-.77.725-.77 1.282 0 .505.267.93.65 1.202l-1.196 5.385a.75.75 0 0 0 .731.913h2.63a.75.75 0 0 0 .733-.913l-1.197-5.385c.384-.271.65-.697.65-1.202 0-.542-.303-.996-.734-1.26a2.211 2.211 0 0 1 .97-1.72l9.167 2.816c.425.13 1.24.293 2.193 0l13.076-4.017a1.104 1.104 0 0 0 0-2.138ZM25.537 26.77a5.247 5.247 0 0 1-3.075 0l-6.798-2.088L15 30c0 1.657 4.03 3 9 3s9-1.343 9-3l-.665-5.319-6.798 2.089Z" fill="#2883FB" fill-rule="nonzero"/></g></svg>