<svg width="48" height="48" xmlns="http://www.w3.org/2000/svg"><g fill-rule="nonzero" fill="none"><rect stroke="#FFF" stroke-width="2" opacity=".5" x="1" y="1" width="46" height="46" rx="8"/><path d="M40 24.549c0-.519-.212-.987-.637-1.404-.425-.42-.993-.756-1.705-1.005a6.994 6.994 0 0 0-2.349-.38h-5.364c-.368 0-.645-.045-.83-.135-.191-.09-.4-.258-.626-.503l-8.84-9.644c-.3-.319-.64-.478-1.02-.478H16.96a.435.435 0 0 0-.382.196c-.09.131-.09.288 0 .472l4.575 10.06-6.693.761-2.39-4.31c-.175-.319-.472-.478-.893-.478h-.588a.597.597 0 0 0-.425.153c-.11.102-.164.245-.164.43v12.433c0 .171.053.31.158.417a.575.575 0 0 0 .418.153h.583c.417 0 .712-.156.886-.466l2.385-4.31 6.687.76-4.582 10.06c-.089.185-.089.342 0 .473a.42.42 0 0 0 .376.196h1.67c.38 0 .717-.16 1.012-.478l8.835-9.656c.223-.25.43-.415.62-.497.185-.086.46-.129.825-.129h5.358c.85 0 1.63-.126 2.342-.38.712-.253 1.278-.588 1.699-1.005.42-.421.63-.89.63-1.404l.098.098Z" fill="#FFF"/></g></svg>