<svg width="48" height="48" xmlns="http://www.w3.org/2000/svg"><g fill="none" fill-rule="evenodd"><circle fill="#FFF" cx="23.949" cy="23.949" r="23.949"/><path d="M24 0C10.744 0 0 10.747 0 24s10.747 24 24 24 24-10.747 24-24S37.256 0 24 0Zm0 46.475c-12.41 0-22.472-10.059-22.472-22.471C1.528 11.59 11.59 1.535 24 1.535c12.41 0 22.472 10.06 22.472 22.469S36.41 46.475 24 46.475Z" fill="#AFAFAF"/><path d="M13.412 30.75c.02.148.046.297.058.447.035.289.054.58.055.87-.02.537-.293.97-.64 1.37a1.338 1.338 0 0 1-.324-.728c-.023-.169.008-.345-.021-.512a1.301 1.301 0 0 0-.153-.327l-.676.305a2.875 2.875 0 0 1-.036-.48c.02-.187.06-.37.119-.547a.249.249 0 0 0-.014-.231c-.133-.22-.13-.22-.385-.177-.211.038-.423.074-.672.117a4.45 4.45 0 0 1 .229-.49c.101-.15.212-.292.33-.428a3.353 3.353 0 0 1-1.24-.167c.272-.253.593-.387.925-.495-.043-.21-.045-.212-.234-.21-.543.007-.981-.237-1.403-.578.402-.205.818-.236 1.244-.243-.595-.108-1.095-.361-1.435-.9.39-.115.804-.128 1.201-.04a2.697 2.697 0 0 0-.066-.275c-.008-.025-.053-.043-.088-.05-.1-.023-.205-.037-.305-.06a1.183 1.183 0 0 1-.835-.641c-.088-.166-.152-.34-.24-.537.45-.02.894.088 1.284.311-.023-.2-.043-.377-.066-.552 0-.022-.032-.046-.055-.06-.455-.278-.618-.718-.679-1.218-.029-.253-.064-.506-.097-.76v-.056l.738.477c.009-.191.018-.368.025-.545.045-1.117.223-2.226.53-3.3a.146.146 0 0 1 .176-.13c.44.018.88-.025 1.307-.129a2.73 2.73 0 0 0-1.025 1.589c.674.071 1.273-.104 1.842-.427a3.417 3.417 0 0 0-.686 1.628c.633-.031 1.158-.302 1.684-.656-.248.53-.516 1.014-.59 1.599a2.94 2.94 0 0 0 1.635-.73c-.237.564-.409 1.107-.365 1.707a2.647 2.647 0 0 0 1.447-.675 4.105 4.105 0 0 0-.197 1.693 2.382 2.382 0 0 0 1.345-1.018c-.116.508-.223 1.013-.078 1.54.492-.137.812-.463 1.066-.873-.094.473-.187.942-.023 1.444l.632-.305c.015.138.019.288.046.434.053.28.114.56.184.836a.176.176 0 0 1-.036.177c-.25.299-.57.498-.906.678-.042.022-.083.047-.143.082l.45.213c-.247.23-.61.274-.854.53l.427.176c-.026.02-.05.041-.079.058-.49.3-1.06.445-1.634.416-.198-.022-.4 0-.588.066-.172.067-.332.15-.347.358-.21.051-.5-.058-.553.26-.04.25.122.489.37.542-.094.2.036.325.158.447.097.098.213.14.346.048-.006.185.029.243.19.308.073.032.15.056.227.073.177.035.272-.005.34-.128a.409.409 0 0 0-.034-.472c-.013.101-.018.198-.04.292-.029.126-.104.167-.23.14-.34-.068-.376-.144-.213-.512-.083.051-.14.082-.193.12-.153.108-.223.092-.353-.089-.103-.141-.088-.223.057-.33a.206.206 0 0 0 .078-.087l-.177.035a.276.276 0 0 1-.346-.344c.013-.05.088-.099.146-.12.152-.054.204-.028.283.107.043.085.128.14.223.145a1.038 1.038 0 0 1-.08-.188c-.056-.27.114-.452.442-.467.177-.008.353 0 .53 0h.512a.16.16 0 0 1 .159.12c.031.091.068.18.111.265a.221.221 0 0 0 .29.125c.405-.12.806-.248 1.21-.374l.07-.024-.088.466c.187-.04.365-.116.522-.225.163-.098.327-.193.491-.29l.025.023-.123.441c.098-.03.193-.064.286-.104.2-.09.395-.193.584-.306.301-.192.593-.147.897 0a4.147 4.147 0 0 0-.86 1.654l.665-.124a3.804 3.804 0 0 0-.177 1.102c.258-.042.47-.165.706-.29-.005.4-.022.784.089 1.203l.752-.554c.057.406.17.803.336 1.178l.608-.665c.128.388.326.75.583 1.067.246-.341.443-.717.583-1.114l.642.714c.171-.374.286-.77.342-1.177l.756.557a3.84 3.84 0 0 0 .075-1.19l.714.305a4.1 4.1 0 0 0-.177-1.133l.653.126a2.691 2.691 0 0 0-.316-.875c-.15-.264-.327-.508-.497-.77.168-.053.348-.113.53-.163a.207.207 0 0 1 .125.025c.235.11.467.225.702.335.149.07.3.136.482.217l-.134-.467c.379.124.646.441 1.044.506-.03-.16-.06-.31-.093-.479.45.13.888.251 1.323.385.166.05.27.02.336-.143.029-.07.044-.146.073-.215.073-.177.148-.203.287-.2.2.007.4-.013.6-.01.099 0 .197.013.293.039.326.088.353.359.204.587.103.014.19-.046.244-.17.047-.108.093-.126.236-.077.094.032.16.08.133.202-.057.257-.142.313-.398.242a.27.27 0 0 0-.14-.005c.039.032.08.062.117.094.103.089.112.16.037.271a.84.84 0 0 1-.083.103.171.171 0 0 1-.265.027l-.17-.117c.008.122.055.264.008.352-.04.075-.187.102-.293.128-.168.04-.208-.036-.24-.431l-.032-.012a.945.945 0 0 0-.066.193c-.04.33.142.487.459.402.038-.01.076-.023.114-.036.143-.048.258-.118.23-.3a.42.42 0 0 0 .53-.506c.236-.032.327-.142.381-.456.033-.19-.088-.264-.265-.309l4.068-3.209c.01.089.02.16.034.27l.721-.958a.313.313 0 0 0-.02-.027l-1.1.483.265.088-4.2 3.32c-.106-.134-.06-.25.004-.379.8-1.611 1.597-3.225 2.393-4.84l.069-.132.138.234c.088-.416.167-.8.247-1.183l-.027-.014-.794.915.273-.033-2.535 5.137a1.512 1.512 0 0 0-.253-.083 2.542 2.542 0 0 0-.425-.032c-.52.011-1.03-.015-1.5-.282-.048-.027-.088-.06-.138-.088l.43-.177c-.231-.257-.594-.295-.852-.529l.458-.169a.3.3 0 0 0-.05-.037 2.852 2.852 0 0 1-1.014-.787.168.168 0 0 1-.029-.134c.143-.435.22-.89.229-1.347.194.175.43.299.684.358a2.7 2.7 0 0 0-.034-1.402c.245.398.633.689 1.084.812.137-.53 0-1.022-.124-1.522.332.495.807.779 1.375.962.068-.578-.053-1.116-.233-1.625.213.153.435.293.665.42.255.106.516.197.782.274.05-.636-.125-1.184-.368-1.755.447.44.941.718 1.554.81.055-.592-.155-1.095-.43-1.588.468.37.984.605 1.589.58.078-.345-.16-.963-.618-1.607.282.162.59.273.91.33.313.065.636.065.95 0-.121-.71-.545-1.19-1.16-1.57.265.053.489.11.72.14.23.03.468.039.705.05.065 0 .097.015.117.088a14.193 14.193 0 0 1 .552 4.412c0 .04.003.081.008.121l.515-.556-.255-.047.938-.607.015.014-.53.98-.054-.24a.651.651 0 0 0-.076.06c-.176.189-.345.378-.514.57a.244.244 0 0 0-.061.123c-.027.27-.046.541-.07.847l.529-.442-.251-.078 1.007-.463.015.016-.65.888a23.278 23.278 0 0 1-.035-.244c-.079.07-.161.136-.248.197-.31.193-.483.458-.479.832a1.58 1.58 0 0 1-.041.246l.431-.272-.24-.115 1.055-.323.013.022-.764.802.016-.27c-.193.123-.369.225-.53.345-.042.032-.048.122-.058.187a.191.191 0 0 1-.151.172c-.282.088-.559.187-.875.293l.246.107c-.963.672-1.976 1.243-2.893 1.953l.015.029.106-.048c.52-.232.99-.55 1.463-.86.441-.29.877-.573 1.315-.86.03-.019.06-.035.1-.058v.27l.581-.64-.073.314.584-.32-.24-.116 1.047-.315.017.024-.759.785v-.255l-.294.162c-.115.063-.232.125-.345.193-.034.021-.077.055-.083.088-.019.102-.089.129-.177.147a7.073 7.073 0 0 0-.757.184l.208.12c-.606.304-1.198.598-1.787.897-.59.3-1.183.57-1.765.901l.095.126 3.53-1.764-.032.274.54-.47-.094.307.514-.212-.224-.131 1.068-.223.015.026-.826.717.03-.264c-.225.097-.43.18-.629.28-.041.021-.06.098-.08.153a14.124 14.124 0 0 1-23.502 4.614c-.124-.131-.241-.265-.361-.401-.01-.011-.018-.026 0-.027.118-.206.223-.418.317-.637.116-.32.04-.646-.045-.966-.067-.253-.131-.508-.2-.762-.007-.026-.042-.044-.064-.066-.014.006-.033.008-.042.018a2.616 2.616 0 0 0-.628 1.88c.01.06.024.12.045.177.12-.706.294-1.388.618-2.025a.163.163 0 0 0 .007-.053Zm1.104-3.167c-.456.76-.721 1.424-.665 1.648.794-.496 1.167-1.236 1.14-2.193a2.42 2.42 0 0 0-1.119.753v-1.225a2.124 2.124 0 0 0-.683.809c-.235.489-.29.99-.089 1.51-.046.01-.08.013-.114.024a.284.284 0 0 0 .024.55.293.293 0 0 0 .317-.141c.104-.177.214-.353.327-.536l.082.28c.075-.266.135-.549.233-.813a1.46 1.46 0 0 1 .547-.666Zm-3.352-.45c.151-.13.315-.264.472-.406.326-.273.516-.675.52-1.1a3.027 3.027 0 0 0-.093-.801c-.935.365-1.353 1.612-.899 2.307Zm.735.673c-.188.059-.264.156-.24.289.023.133.139.202.352.183.028.06.053.122.084.182.031.06.067.115.102.177-.108-.634-.167-1.25.17-1.832-.005.162-.026.324-.041.485-.016.162-.032.334-.042.501-.01.168-.02.328-.017.491.004.163.025.324.04.499.128-.204.237-.39.358-.565a1.5 1.5 0 0 0 .252-1.217 3.164 3.164 0 0 0-.303-.837c-.52.432-.762.974-.714 1.644Zm6.69 6.237c-.008-.803-1.244-2.693-1.981-3l-.1.24a.12.12 0 0 0 .048.153c.757.628 1.275 1.399 1.438 2.383a.102.102 0 0 0 .059.072c.177.058.356.103.537.152ZM37.456 25.5l.563-1.065-.023-.021-.981.633c0 .01.006.02.01.03l.229.035c-.04.045-.065.076-.088.105a5454.413 5454.413 0 0 0-4.005 4.376c-.063.084-.12.172-.17.265l.035.029a4.25 4.25 0 0 0 .44-.375 915.118 915.118 0 0 0 3.693-4.028l.228-.249c.025.09.042.16.069.265Zm-26.788-.152c.544-.38.814-1.748.45-2.224-.353.158-.751.617-.859 1.001a.168.168 0 0 0 .035.124c.157.202.267.437.322.688.026.131.034.266.052.411Zm26.686-1.304c-.038.05-.061.082-.089.113-.722.915-1.452 1.826-2.165 2.748-.326.423-.618.871-.926 1.309a.46.46 0 0 0-.036.069l.03.021c1.154-1.345 2.206-2.774 3.331-4.154.03.088.051.156.088.26l.482-1.107-.026-.019-.931.706.013.028.229.026ZM30.559 34.91l.068-.128c.19-.39.379-.782.574-1.17a.302.302 0 0 0 .016-.25.28.28 0 0 1 .007-.188c.16-.348.33-.691.497-1.036.02-.042.038-.088.058-.133l-.146-.082c-.193.4-.377.788-.57 1.173a.287.287 0 0 1-.143.123.322.322 0 0 0-.176.159c-.198.387-.402.772-.602 1.157-.02.036-.035.074-.064.135l.353-.1.128.34Zm6.853-8.811c.014.082.026.155.047.265l.645-1.02-.027-.021-1.059.57.259.066c-.98.97-2.054 1.82-2.947 2.861 1.103-.815 2.043-1.814 3.082-2.721ZM28.3 33.7c.03-.025.064-.051.096-.08.233-.2.467-.401.699-.603.083-.074.16-.155.29-.13.033.006.074-.025.106-.047.458-.32.92-.635 1.37-.97.158-.135.305-.283.44-.441l-.02-.023c-.033.02-.067.038-.099.059-.523.345-1.048.689-1.568 1.038a.333.333 0 0 1-.298.068.22.22 0 0 0-.153.028c-.38.233-.76.47-1.139.706-.033.02-.064.044-.119.081.112.027.217.025.28.075.064.05.075.15.115.239Zm7.808-8.81-.03-.016-.873.783a.26.26 0 0 0 .02.03l.232-.012-.056.094c-.308.467-.61.937-.925 1.4a11.718 11.718 0 0 0-1.036 1.8c-.017.038-.032.077-.048.115l.025.013 2.196-3.32.105.257.39-1.144Zm-4.648 6.57c-.23.25-.452.484-.664.726a.394.394 0 0 1-.323.169.201.201 0 0 0-.121.063c-.335.331-.668.665-1.002.998a1.481 1.481 0 0 0-.094.117c.25-.075.387-.012.409.235.03-.037.057-.067.08-.097.243-.317.485-.635.726-.953.072-.096.133-.199.276-.203.031 0 .065-.044.088-.073.186-.215.361-.44.555-.645a.3.3 0 0 0 .07-.338Zm-.314-.159-.017-.019-.117.057c-.48.238-.958.475-1.436.716a.281.281 0 0 1-.225.021.334.334 0 0 0-.211.013c-.379.172-.752.353-1.127.53-.06.028-.117.06-.2.102.084.023.165.056.242.098.058.056.11.12.153.188a.75.75 0 0 0 .088-.048c.302-.195.605-.389.904-.587a.294.294 0 0 1 .277-.066.194.194 0 0 0 .13-.041c.4-.246.801-.494 1.201-.743.115-.075.227-.146.338-.22ZM9.575 23.978c.359.494.676 1.016.948 1.563-.144.132-.177.243-.11.361.058.101.176.15.288.121a.265.265 0 0 0 .186-.251c0-.138-.088-.205-.323-.265-.128-.63-.41-1.173-.986-1.527l-.003-.002Zm1.543 6.422.014.029.103-.053c.382-.199.787-.35 1.206-.451.077-.018.145-.036.202.06a.232.232 0 0 0 .31.071.265.265 0 0 0 .144-.277.257.257 0 0 0-.243-.21.249.249 0 0 0-.265.181l-.028.104c-.549.01-1.05.139-1.443.546Zm-1.822-4.373c.465.242.902.535 1.302.873l-.057.054a.189.189 0 0 0-.04.24.185.185 0 0 0 .21.106.188.188 0 0 0 .164-.18.202.202 0 0 0-.131-.208.371.371 0 0 1-.126-.1 2.154 2.154 0 0 0-.786-.65 1.227 1.227 0 0 0-.535-.135Zm4.822 3.915a.296.296 0 1 0-.303-.289.292.292 0 0 0 .303.289Zm-.104.887a.29.29 0 0 0 .297-.293.296.296 0 1 0-.297.293Zm-1.896-1.418c.007.05.019.1.034.147a.2.2 0 1 0 .367-.16c-.045-.103-.184-.164-.265-.088-.108.088-.219.074-.336.067a2.596 2.596 0 0 0-1.235.22c-.038.017-.074.04-.127.07l1.562-.256Zm-.869-1.361c-.635-.413-1.046-.576-1.341-.497.047.017.088.028.12.043l1.063.455c.079.023.128.1.116.182a.198.198 0 0 0 .39.029.176.176 0 0 0-.125-.227.805.805 0 0 0-.223.014v.001Zm.882.97a.286.286 0 1 0-.284.294.292.292 0 0 0 .286-.297l-.002.004Zm-.589-1.467a.29.29 0 0 0-.273-.28.279.279 0 1 0 .273.28Zm1.429 2.761c-.415.15-1.035.997-1.012 1.355.325-.442.667-.899 1.012-1.355ZM15 30.03a.245.245 0 0 0-.242-.234.238.238 0 0 0-.232.229c0 .13.103.236.233.24A.245.245 0 0 0 15 30.03Zm-1.478-.265a.219.219 0 0 0 .006.437.219.219 0 0 0-.006-.437Zm18.635 1.315a.41.41 0 0 0 .323-.407.116.116 0 0 0-.041-.067.272.272 0 0 0-.32 0c.011.164.023.32.036.474h.002Zm-16.253-.384a.276.276 0 0 0-.32.01c-.088.088-.006.176.013.265a.177.177 0 0 0 .027.053.3.3 0 0 0 .237.157l.04-.485h.003Zm-4.301-1.985a1.619 1.619 0 0 0-1.178-.219l1.178.22Zm4.475 2.287c-.088.138-.17.257-.264.399.094.018.188.042.283.052.02 0 .071-.05.069-.069-.019-.129-.056-.252-.088-.386v.004Zm16.114.283-.246-.377c-.023.082-.052.16-.067.239-.007.064-.01.128-.008.193.073.003.147 0 .22-.005a.33.33 0 0 0 .1-.053v.003Zm-16.18-.518a.257.257 0 0 0 .266-.01c.044-.035.05-.124.06-.19a.088.088 0 0 0-.045-.07c-.01-.008-.048.018-.066.036-.07.073-.142.152-.214.23v.004Zm15.996-.095-.215-.231c-.033-.036-.068-.088-.105-.012a.176.176 0 0 0 .166.265 1.01 1.01 0 0 0 .154-.026v.004Zm.075-18.358c-.32.2-.64.375-.933.586-.433.311-.75.719-.814 1.262a3.8 3.8 0 0 0 .023.846c.06.555.17 1.103.155 1.667-.027 1.059-.838 1.783-1.518 2-.111.035-.249 0-.372-.02-.69-.088-1.379-.19-2.069-.283-.161-.022-.325-.03-.487-.052a.129.129 0 0 1-.083-.088c-.056-.362-.104-.727-.16-1.09-.074-.478-.152-.957-.23-1.444a1.15 1.15 0 0 0 1.028-.546c-.516.215-.9-.017-1.271-.294a1.17 1.17 0 0 1-.154-.135 1.44 1.44 0 0 0-1.048-.45 4.21 4.21 0 0 0-1.248.113.984.984 0 0 0-.188.074c-.155.08-.19.158-.16.313a5.76 5.76 0 0 0-.604.184.746.746 0 0 0-.256 1.168c0 .005.015.004.022.006.104-.289.217-.353.541-.373a1.08 1.08 0 0 1 1.079.732.644.644 0 0 1-.166.693c-.122.12-.26.225-.389.338a2.04 2.04 0 0 0-.562.722.154.154 0 0 1-.106.072c-.535.061-1.07.112-1.604.177-.275.033-.55.088-.824.129a.387.387 0 0 1-.142.005c-1.016-.25-1.756-.84-2.153-1.815-.2-.489-.131-.996 0-1.5.101-.331.185-.668.25-1.008.138-.903-.109-1.676-.846-2.258-.042-.031-.08-.067-.118-.101a.167.167 0 0 1-.015-.025 13.853 13.853 0 0 1 6.675-2.077c3.19-.147 6.11.682 8.747 2.472Z" fill="#2B5283"/><path d="m37.826 15.58.76-.215c3.352 5.41 3.583 14.042-2.335 20.227-6.098 6.393-16.103 6.98-22.907 1.344-6.892-5.712-7.83-15.23-3.55-21.956l.725.28C8.097 19.21 7.38 23.443 8.51 27.942c.883 3.515 2.797 6.397 5.647 8.638a16.034 16.034 0 0 0 19.564.216c3.287-2.486 5.362-5.765 6.141-9.815.78-4.049.056-7.85-2.036-11.4Z" fill="#9E2935"/><path d="M29.294 22.877a26.846 26.846 0 0 0-5.227-.55 26.74 26.74 0 0 0-5.213.55c-.01-.156-.023-.302-.03-.448-.035-.738-.07-1.476-.102-2.215-.014-.304-.027-.607-.046-.91-.005-.088.024-.12.106-.135.719-.119 1.436-.256 2.159-.359a21.488 21.488 0 0 1 3.677-.21c.574.016 1.147.05 1.721.116.815.093 1.628.218 2.44.336.194.028.384.08.575.115.081.014.113.046.109.134-.043.878-.08 1.756-.12 2.634-.01.228-.02.455-.032.682-.005.083-.017.166-.017.26Zm-1.878-2.383c-.015-.088-.03-.164-.045-.242l-.029-.023c-.023.244-.164.272-.353.233l.19.168-.115.229.018.016.227-.133c.029.03.056.062.082.096.025.035.044.075.066.113l.06-.022c-.113-.203-.048-.329.146-.401l-.247-.034Zm-1.708-.188.105.442.21-.138.187.171.019-.016-.06-.243.21-.123c-.088-.033-.188-.017-.236-.059-.047-.042-.048-.15-.07-.228-.055.198-.162.288-.37.198l.005-.004Zm2.458-.947-.034.016c-.04.071-.063.176-.123.205-.06.03-.155-.016-.234-.029l-.016.027.193.157-.125.236a.3.3 0 0 0 .144-.056c.066-.051.117-.05.167.024.032.04.067.076.106.108h.038c-.134-.214-.025-.315.177-.393-.242.029-.32-.082-.293-.295Zm-5.294.105.199-.155a.297.297 0 0 0-.16-.007c-.072.016-.113-.004-.131-.078a1.277 1.277 0 0 0-.058-.156l-.04-.018c.044.249-.096.297-.314.278.098.07.195.104.215.164.02.06-.027.156-.05.265a.882.882 0 0 0 .107-.088c.07-.089.136-.098.216-.015a.63.63 0 0 0 .098.065l.016-.02a3.443 3.443 0 0 0-.097-.24v.005Zm-2.92 1.162a.6.6 0 0 0-.124.013c-.115.048-.176.006-.209-.108a.597.597 0 0 0-.064-.112c-.016.109-.029.19-.04.273l-.277.046.262.12-.043.248.017.033c.1-.197.232-.235.403-.088-.035-.095-.1-.172-.088-.235.01-.064.092-.116.165-.195l-.001.005Zm3.906-.928.22-.166.198.155.019-.013-.08-.244.2-.145c0-.014.007-.028.01-.04-.236.087-.317-.035-.354-.24-.007.24-.137.297-.341.265.073.065.17.1.19.162.02.062-.032.148-.061.261l-.001.005Zm3.882 2.444a.794.794 0 0 0 .12-.068.105.105 0 0 1 .177.026c.035.044.073.084.114.122-.011-.116-.048-.213-.017-.275.03-.063.131-.083.221-.134l-.27-.04-.046-.28-.123.248-.243-.039-.037.022c.227.105.21.247.104.413v.005Zm-6.97-1.476a31.65 31.65 0 0 0-.05.252 4.14 4.14 0 0 1 .435-.057.857.857 0 0 0-.066-.131.107.107 0 0 1 .033-.176 1.22 1.22 0 0 0 .126-.114c-.117.009-.216.046-.276.012-.06-.033-.073-.136-.111-.217a.477.477 0 0 1-.319.306l.228.125Zm1.632.083.018-.019-.1-.229.217-.182c-.116.008-.213.043-.265.01-.05-.034-.076-.14-.121-.237l-.066.265-.246.01a.28.28 0 0 0 .12.097c.076.032.103.076.067.157a1.26 1.26 0 0 0-.045.184l.214-.198.207.142Zm-2.091-.743.018-.041-.133-.24.19-.157-.013-.021-.241.044c-.04-.08-.073-.151-.109-.222l-.039-.01c.045.234-.07.308-.286.302.225.06.287.183.193.397.125-.177.253-.25.419-.057v.005Zm5.125 1.226c-.03.231-.165.277-.373.242.245.088.2.246.135.413l.206-.141.21.184c-.023-.108-.073-.2-.049-.265.025-.064.124-.1.19-.149 0-.011.004-.023.007-.034-.223.058-.314-.037-.327-.254v.004Zm3.529-.478c-.238.017-.316-.1-.322-.3l-.111.222-.245-.048-.01.022.183.16-.145.271.255-.134.167.186h.036c-.097-.206-.042-.332.19-.384l.002.005Zm-2.146-1.582-.037.017-.099.229-.256-.033c.05.142.08.291.089.441l.217-.135.208.195c-.02-.112-.066-.206-.039-.265.027-.06.126-.088.195-.134-.21.002-.305-.095-.28-.32l.002.005Zm.012 2.6.217-.124a.633.633 0 0 0 .012-.038c-.242.06-.315-.06-.3-.295a.96.96 0 0 0-.056.083c-.08.176-.08.176-.265.164a.503.503 0 0 0-.063 0c.2.102.177.24.084.394l.016.02.205-.123.182.177.02-.01c-.017-.085-.035-.164-.054-.253l.002.004Zm-3.363-1.236.101.074.1.071.036-.006c-.136-.176-.096-.307.104-.404-.22.045-.332-.03-.349-.249a.308.308 0 0 0-.048.121c-.01.112-.062.165-.176.141a.513.513 0 0 0-.104 0l-.028.033c.242.053.236.193.16.36l.015.022.189-.163Zm-3.394 1.642.048.02.147-.202.236.126.013-.02-.122-.233.195-.158v-.04c-.215.119-.322.027-.368-.19-.1.12-.211.231-.33.333.215.045.284.162.179.362l.002.002Zm4.324-1.908c.256.089.213.238.131.397 0 0 .01.01.017.02l.2-.148.196.16c0-.088-.06-.172-.04-.23.02-.058.118-.104.18-.156v-.037c-.208.065-.297-.037-.313-.253-.045.202-.138.306-.375.246l.004.001Zm-2.532 1.277c-.082.004-.183.04-.24.004-.058-.035-.073-.14-.107-.214-.009.207-.109.304-.338.289.249.059.254.206.195.392l.187-.176.213.133.033-.006c-.145-.176-.13-.316.053-.424l.004.002Zm.954-.306-.032-.012c.02.229-.089.302-.302.264.074.065.176.1.196.163.02.063-.028.156-.053.265l.212-.186.209.137.016-.019a24.44 24.44 0 0 1-.094-.23c.04-.03.076-.056.11-.083.035-.027.059-.05.095-.081-.1 0-.198.028-.253-.008-.054-.036-.071-.138-.107-.212l.003.002Zm.949.203.22.158c-.028.082-.054.16-.082.238l.02.034c.133-.2.264-.176.426-.008-.144-.205-.076-.33.129-.436-.265.1-.315-.059-.353-.275-.043.119-.049.224-.103.265-.053.041-.156.016-.26.022l.003.002Zm-2.398-2.262-.037-.015c.025.225-.071.32-.298.296.22.071.265.2.157.396h.035l.188-.176.22.134a.674.674 0 0 1 .088-.436l-.259.028-.094-.227Zm3.706.114.203.165-.106.265c.097-.058.169-.139.235-.133.066.005.133.088.2.143-.089-.185-.053-.319.165-.403-.244.049-.316-.073-.313-.284a.645.645 0 0 1-.385.248h.001Zm-14.753-8.231c-.606-.24-.916-1.034-.75-1.559a.124.124 0 0 1 .041.015 6.15 6.15 0 0 0 1.714.966c.866.336 1.745.637 2.616.959.851.313 1.642.729 2.282 1.389.257.264.478.551.517.935a2.42 2.42 0 0 1-.156 1.023 7.915 7.915 0 0 0-.299 1.092c-.132.744.065 1.417.519 2.015.374.491.846.9 1.385 1.2.053.03.09.08.103.139.03.617.05 1.228.08 1.842a.155.155 0 0 1-.111.181c-.177.065-.353.139-.543.213a2.146 2.146 0 0 1-.093-1.293c-.53.282-1.069.382-1.646.412.072-.562.227-1.078.581-1.559-.57.06-1.111.094-1.683-.034.096-.192.176-.382.283-.555.107-.173.244-.333.365-.495-.313-.045-.64-.072-.958-.142-.317-.07-.624-.183-.954-.282a3.409 3.409 0 0 1 1.147-1.113c-.698-.096-1.372-.15-2.029-.383.265-.368.542-.7.926-.967a6.99 6.99 0 0 1-2.095-.558l.636-.724a4.339 4.339 0 0 1-1.954-.47 2.91 2.91 0 0 1 .706-.79c-.183-.045-.36-.076-.53-.132a2.834 2.834 0 0 1-1.084-.686c-.06-.059-.054-.1 0-.158.234-.243.54-.405.873-.462l.11-.02Zm26.344 3.445c-.665.29-1.37.477-2.092.554.367.27.688.598.951.97-.665.24-1.35.285-2.058.38a3.42 3.42 0 0 1 1.13 1.092 4.847 4.847 0 0 1-1.941.42c.304.304.535.673.675 1.08-.547.119-1.088.093-1.662.025.325.462.524 1 .575 1.563a3.739 3.739 0 0 1-1.642-.41c.082.442.082.858-.094 1.297-.24-.102-.473-.2-.701-.305-.024-.011-.034-.075-.033-.114.022-.555.044-1.11.074-1.663a.194.194 0 0 1 .088-.135c.335-.197.64-.44.906-.724.306-.336.497-.762.542-1.215.066-.52-.005-1.036-.06-1.552-.03-.286-.066-.572-.08-.858-.024-.464.166-.836.521-1.13a6.676 6.676 0 0 1 2.218-1.235c.948-.306 1.902-.592 2.853-.888.612-.19 1.213-.403 1.746-.768.098-.067.191-.14.303-.222.022.484-.076.904-.43 1.235-.303.283-.676.434-1.06.558l-.133.044c.288.222.533.494.725.803-.622.316-1.284.402-1.964.462l.643.736Z" fill="#2B5283"/><path d="M35.245 11.295c-.318.088-.601.166-.883.235-.037.009-.094-.033-.131-.063a16.088 16.088 0 0 0-19.399-.686.196.196 0 0 1-.227.023c-.119-.058-.245-.1-.367-.146-.123-.047-.238-.088-.382-.144 3.245-2.406 6.86-3.573 10.879-3.419 3.985.154 7.47 1.587 10.51 4.2Z" fill="#9E2935"/><path d="m19.862 27.116-.02-.01c-.17-.155-.239-.146-.366.065-.063.104-.118.214-.176.32h-.043a5.224 5.224 0 0 1-.145-.655c-.055-.588-.088-1.177-.128-1.765-.04-.587-.073-1.202-.11-1.82.202-.042.4-.088.599-.12.503-.081 1.006-.166 1.51-.231a23.15 23.15 0 0 1 1.324-.13c.485-.034.97-.048 1.457-.073.089-.006.127.015.127.116a528.373 528.373 0 0 0 0 3.345v.068l-.04.034a.794.794 0 0 1-.088-.134.371.371 0 0 0-.239-.203.21.21 0 0 1-.145-.158c-.058-.276-.22-.436-.492-.537-.161-.06-.293-.215-.425-.341-.088-.088-.15-.088-.216.011a.593.593 0 0 1-.468.27.254.254 0 0 0-.203.144c-.062.102-.131.2-.204.295-.166.21-.382.377-.628.484a.403.403 0 0 0-.15.144c-.088.13-.16.265-.24.4-.121.2-.29.364-.491.48Z" fill="#2973A2"/><path d="M23.887 30.219c-.378-.363-.846-.46-1.293-.602-.562-.176-1.127-.347-1.688-.53a2.507 2.507 0 0 1-1.493-1.268.345.345 0 0 1-.01-.048c.045 0 .087-.007.13-.007h4.208c.114 0 .15.03.149.147-.006.723 0 1.447 0 2.17l-.003.138Z" fill="#639130"/><path d="M24.258 24.773c.202.056.387.114.576.155.283.063.547-.014.794-.144.156-.082.306-.177.459-.265a.855.855 0 0 1 .959.017c.227.164.484.28.758.342a1.35 1.35 0 0 0 1.107-.257c.088-.07.182-.141.293-.227l-.047.83c-.008.136-.014.272-.029.407a.164.164 0 0 1-.062.101c-.158.114-.328.213-.48.334a.799.799 0 0 1-.877.105 3.794 3.794 0 0 1-.396-.222 1.387 1.387 0 0 0-1.412-.055c-.16.082-.316.17-.469.265a.805.805 0 0 1-.852.017c-.32-.165-.32-.164-.32-.518l-.002-.885Z" fill="#2B5283"/><path d="M24.265 26.751c.23.051.44.109.66.147.216.03.435-.01.626-.114.168-.083.332-.177.492-.273.347-.212.684-.226 1.03.009.24.174.517.29.81.339.367.055.741-.043 1.034-.272l.13-.098.033.013a5.137 5.137 0 0 1-.118.664 7.508 7.508 0 0 1-.33.818.493.493 0 0 1-.392.265.872.872 0 0 1-.592-.093c-.1-.057-.202-.114-.3-.177-.523-.323-1.048-.311-1.575-.013-.132.075-.263.151-.394.228a.757.757 0 0 1-.755.014c-.364-.177-.364-.177-.364-.577v-.875c.005-.01.01-.016.005-.005Zm0-3.377v-.563c0-.08.017-.118.106-.113.462.024.924.037 1.386.07.461.032.914.067 1.367.13.618.087 1.236.194 1.853.294a.276.276 0 0 1 .047.01c.08.028.22.047.227.089.01.138.003.277-.02.413 0 .015-.037.025-.058.037-.176.105-.365.188-.515.319-.36.313-.754.284-1.115.07a3.53 3.53 0 0 0-.643-.31 1.196 1.196 0 0 0-.918.087c-.198.096-.39.201-.577.316-.276.167-.545.145-.817 0-.32-.167-.32-.167-.32-.52l-.003-.33Z" fill="#2973A2"/><path d="m7.896 37.372.233.325-.146.107-.817-1.125.14-.107.242.316 1.64-1.192-.012-.028-2.426.492 1.129-2.206-.026-.021-1.607 1.163.23.325-.144.109-.635-.871.143-.109.241.319 2.23-1.621-.23-.321.143-.109c.157.216.312.423.457.637.018.026 0 .089-.02.126-.333.66-.668 1.318-1.003 1.976-.021.042-.04.084-.072.154.176-.035.319-.063.465-.094.617-.127 1.225-.257 1.838-.382a.125.125 0 0 1 .103.02c.176.232.345.469.52.71l-.143.106-.24-.317-2.233 1.618ZM30.441 7.117c-.088-.849-.167-1.66-.248-2.47h-.032l-.72 1.852.365.15-.058.169-1.009-.39c.024-.058.042-.105.065-.165l.37.125.996-2.565-.369-.152c.022-.054.04-.105.064-.168.244.096.482.185.716.285.036.026.06.067.064.112.039.341.071.683.105 1.024l.127 1.263c.006.03.014.06.026.088l.101-.094c.505-.499 1.01-.993 1.51-1.493a.196.196 0 0 1 .257-.057c.233.101.473.186.72.282l-.065.168-.372-.138-.995 2.567.37.151-.065.166-1.305-.505.063-.166.374.142.732-1.887-.03-.019-1.757 1.725ZM4.027 29.905c.03.124.053.232.078.338-.163.076-.169.073-.209-.089l-.24-.975c-.038-.158-.038-.158.138-.193.022.088.04.177.07.26.01.028.055.068.076.064.387-.088.774-.186 1.175-.284l-.371-1.518-.706.168c-.14.033-.28.07-.42.1-.082.017-.117.052-.088.14.025.071.037.146.059.232l-.173.047-.312-1.27.17-.045.097.346 2.675-.654L6 26.366c-.035-.154-.035-.154.14-.177l.31 1.262-.171.046-.095-.343-1.183.287.373 1.521.506-.123c.198-.049.394-.1.593-.143.07-.016.097-.039.073-.113-.024-.074-.04-.16-.062-.252l.176-.048.307 1.264c-.171.064-.171.064-.21-.094a9.778 9.778 0 0 1-.05-.2l-2.68.652ZM23.824 5.76h.34v.176H22.86V5.76c.088 0 .168-.004.25 0 .083.004.115-.025.113-.109-.005-.155 0-.311 0-.467 0-.683 0-1.367.005-2.05 0-.11-.03-.154-.142-.142-.07.004-.14.004-.211 0v-.16a.471.471 0 0 1 .078-.014c.512.005 1.023 0 1.535.017.435.013.717.238.782.635.064.397-.035.764-.482.964l-.158.068a.57.57 0 0 0 .033.069c.211.329.422.659.637.985.116.177.12.177.442.218v.165c-.265 0-.52.008-.773 0-.13-.005-.203-.115-.265-.218-.23-.36-.46-.72-.686-1.082a.145.145 0 0 0-.195-.074V5.76Zm0-1.436h.29a.514.514 0 0 0 .488-.318.777.777 0 0 0 .05-.515.482.482 0 0 0-.468-.42 1.483 1.483 0 0 0-.286 0 .109.109 0 0 0-.075.075c-.006.386 0 .772 0 1.178Zm16.281 33.564-.144-.107.21-.292-2.211-1.642-.222.283-.14-.103.114-.157c.254-.343.505-.689.767-1.027.088-.118.191-.224.307-.315a.69.69 0 0 1 .76-.054c.282.139.495.345.51.682a3.431 3.431 0 0 1-.04.456c.122.01.255.022.388.03.282.02.565.032.849.054.166.014.299-.026.383-.176a.467.467 0 0 1 .052-.06l.146.11c-.16.208-.309.416-.476.606a.335.335 0 0 1-.234.089c-.331-.01-.662-.035-.992-.056-.144-.009-.287-.03-.43-.028-.05 0-.098.05-.168.088l.992.737.217-.282.143.105-.781 1.06Zm-.738-1.742c.288-.316.353-.529.238-.772-.114-.242-.426-.46-.663-.44-.305.018-.418.264-.571.48l.996.732Zm-17.72 5.874v-.176h.43c.343.012.686.033 1.03.04a1.565 1.565 0 0 1 .297 3.1 1.78 1.78 0 0 1-.37.02c-.44-.01-.886-.025-1.33-.04-.055 0-.11-.012-.161-.018-.022-.165-.018-.167.132-.164.252 0 .224.044.234-.225.028-.798.056-1.598.088-2.396.004-.103-.017-.151-.127-.142-.069.007-.14.001-.223.001Zm1.197 2.839a.952.952 0 0 0 .963-.498 1.51 1.51 0 0 0 .017-1.605.949.949 0 0 0-.728-.51c-.13-.017-.264-.01-.395-.018-.069-.005-.078.034-.08.088 0 .147-.005.295-.01.441l-.076 2.013c0 .06.019.088.081.088h.228ZM10.554 7.91l-.293.209-.107-.143.552-.408c.223-.163.442-.33.668-.487.971-.672 2.234-.17 2.452.988.122.65-.11 1.177-.65 1.565-.218.156-.432.315-.647.474-.151.112-.29.093-.405-.063-.328-.444-.655-.889-.98-1.333l-.59-.803Zm2.078 1.819c.13-.097.255-.182.37-.278a.941.941 0 0 0 .334-.811 1.476 1.476 0 0 0-.508-1.05c-.578-.514-1.182-.53-1.746.03l1.55 2.109ZM6.067 33.434A1.543 1.543 0 0 1 4.5 31.888c.004-.874.773-1.61 1.676-1.608a1.544 1.544 0 0 1 1.552 1.554c-.003.883-.75 1.603-1.66 1.6Zm.425-2.597-.008.022c-.095.01-.191.014-.285.032-.58.115-1.043.4-1.301.95-.207.44-.023.813.441.954.384.112.797.074 1.154-.106.416-.191.745-.481.883-.937a.6.6 0 0 0-.359-.775 4.018 4.018 0 0 0-.525-.14Zm37.273-14.703c.005.87-.737 1.606-1.626 1.612-.903.005-1.598-.663-1.601-1.537-.003-.875.747-1.615 1.662-1.615a1.548 1.548 0 0 1 1.565 1.54Zm-1.966 1.025a1.8 1.8 0 0 0 1.328-.588c.09-.097.165-.206.224-.324.238-.475.043-.895-.473-1.018-.537-.13-1.02.01-1.458.325a1.38 1.38 0 0 0-.53.692c-.11.34 0 .618.319.785a1.2 1.2 0 0 0 .589.128ZM20.02 44.77a1.924 1.924 0 0 1-.265-.066.184.184 0 0 1-.081-.104c-.327-.805-.652-1.611-.976-2.42a.254.254 0 0 0-.078-.11l-.479 2.005.36.097-.039.17-1.021-.242.038-.176.287.072c.065.018.1.006.118-.07.176-.757.363-1.511.543-2.267a.324.324 0 0 0-.25-.405c-.046-.01-.089-.024-.149-.04l.03-.155a.418.418 0 0 1 .094 0c.233.053.464.114.699.165a.216.216 0 0 1 .176.152c.29.742.586 1.483.882 2.225l.048.117h.032l.46-1.917-.36-.098.037-.172 1.021.24-.044.176-.388-.088-.695 2.912ZM37.059 7.427l.122-.134c.222.203.44.4.655.601a.11.11 0 0 1 .027.089c-.08.637-.162 1.274-.246 1.91-.028.221-.054.442-.083.663a.29.29 0 0 1 .028.018l1.335-1.465-.274-.253.12-.134.781.711-.116.132-.32-.28a1.165 1.165 0 0 1-.088.12c-.346.382-.693.763-1.041 1.143a.265.265 0 0 1-.114.08c-.31.088-.618.17-.95.258l.295-2.404-.029-.015-1.388 1.523.271.259-.12.131-.78-.711.12-.134.295.264.627-.685c.334-.365.673-.726.996-1.102.07-.082.082-.216.113-.33.006-.019-.027-.054-.048-.075a1.966 1.966 0 0 0-.188-.18Zm-1.765 31.057-.265.234-.121-.13.97-.883.123.129-.266.244.366.402c.275.301.548.603.825.903.078.086.16.167.248.243.296.245.592.241.888-.005.454-.375.5-.868.111-1.307-.389-.44-.804-.887-1.218-1.343l-.295.265-.12-.142.799-.73.124.134-.294.27.457.503c.265.29.53.577.794.87.204.23.353.488.32.81a1.168 1.168 0 0 1-.094.353 1.616 1.616 0 0 1-.848.84c-.45.2-.864.115-1.199-.245-.402-.433-.798-.873-1.197-1.31a1.702 1.702 0 0 1-.108-.105ZM3.583 19.238l-.112.334-.162-.044c.01-.04.015-.077.025-.114l.3-1.008c.045-.148.05-.15.208-.078l-.088.331c.206.063.407.125.608.184.433.127.862.264 1.298.375.546.135.91-.152.945-.72.027-.44-.176-.75-.623-.889-.551-.176-1.107-.333-1.66-.5-.074-.022-.11-.01-.128.069-.022.092-.055.181-.082.27-.186-.027-.186-.027-.138-.187l.265-.892.176.049c-.025.088-.043.168-.073.243-.042.105-.02.15.094.183.537.154 1.072.316 1.605.478.1.03.196.069.289.115a.905.905 0 0 1 .538.715c.073.53-.053 1.004-.429 1.39-.293.3-.655.352-1.05.23a172.01 172.01 0 0 0-1.677-.5c-.037-.013-.08-.022-.129-.034ZM11.065 36.8l-.265-.25.12-.13 1.437 1.32.102-.082.176.153-.5.54-.176-.152.225-.254c-.243-.227-.485-.45-.737-.684l-.77.839.577.53.2-.252.193.172-.618.676-.176-.157.218-.248-.571-.525-.81.875.771.706.243-.254.171.161-.413.452-1.658-1.525.14-.114.255.221 1.866-2.019Zm6.847-31.374a.837.837 0 0 1 .064-.022c.26-.075.4-.251.377-.516a1.168 1.168 0 0 0-.207-.592.458.458 0 0 0-.545-.19c-.099.028-.195.065-.304.103l.848 2.55.232-.074c.155-.051.154-.051.204.124l-1.287.425-.054-.172.338-.118-.866-2.613-.343.101-.06-.159c.043-.017.077-.032.113-.044.404-.134.808-.276 1.215-.397a1.43 1.43 0 0 1 .504-.07c.387.029.628.26.733.624a.882.882 0 0 1-.292.962c-.123.1-.263.178-.413.23-.192.075-.205.058-.257-.152Zm16.471 1.996-.643 1.005.883.565.194-.293.2.128-.33.517-1.894-1.209.094-.151.307.19 1.482-2.326-.3-.196.094-.152 1.644 1.048.088-.097.194.122-.393.617-.196-.122c.05-.08.098-.152.137-.229.013-.023.011-.078-.004-.088-.265-.177-.53-.342-.802-.518l-.618.962.654.419c.061-.088.116-.177.177-.265l.2.12-.485.772-.203-.12.176-.284-.656-.415Zm-19.55-.618.547 1.059.933-.481-.153-.308.202-.116.285.546-2 1.032-.084-.16.32-.168-1.261-2.45-.32.16a3.386 3.386 0 0 0-.089-.158l1.734-.896-.04-.123.2-.108.34.652-.204.108a41.85 41.85 0 0 1-.164-.298l-.893.458.522 1.014.69-.353-.133-.29.206-.114.42.815-.21.116-.152-.293-.696.356Zm15.933 37.36L30.698 44l.332-.14c-.335-.854-.667-1.702-1.006-2.56l-.326.124c-.094-.148-.092-.155.057-.214l1.557-.617c.04-.016.08-.034.124-.053l-.024-.128.212-.088c.088.228.176.45.269.683l-.213.089c-.043-.105-.088-.202-.132-.315l-.942.372c.14.353.277.706.42 1.064l.72-.287-.102-.285a.221.221 0 0 1 .024-.024c.182-.101.183-.101.257.088l.25.647a.265.265 0 0 1 .009.036l-.21.088a43.383 43.383 0 0 1-.13-.308l-.722.282.436 1.111.97-.383-.12-.326.22-.088.224.567-2.086.83Zm-14.054-.488c-.024.047-.046.089-.073.149l-1.036-.471.077-.16.297.127c.01-.114.022-.215.029-.315.01-.144.016-.288.026-.43a.11.11 0 0 0-.074-.13c-.303-.134-.603-.274-.906-.407a.137.137 0 0 0-.116 0c-.192.176-.377.353-.577.545l.346.162-.075.164-.882-.4.071-.158a.48.48 0 0 1 .115.044c.114.084.189.042.282-.048.718-.69 1.441-1.373 2.162-2.059.054-.051.096-.099.182-.046.086.053.167.065.158.199-.045.629-.079 1.259-.114 1.889-.022.39-.037.782-.064 1.173-.006.13.12.098.172.172Zm-.576-2.742-.035-.012-.92.872.874.397c.029-.435.054-.846.08-1.257Zm5.531-35.038c-.141-.236-.265-.453-.401-.665a.114.114 0 0 0-.097-.04c-.334.053-.667.112-1 .176a.14.14 0 0 0-.095.08c-.059.243-.109.489-.166.754l.373-.052.037.17-.875.154c-.073.013-.103-.03-.095-.088.005-.035.048-.089.072-.089.176 0 .218-.096.249-.246.198-.95.406-1.901.61-2.851a.23.23 0 0 1 .28-.19c.037.011.067.063.088.102.508.841 1.015 1.683 1.52 2.525.068.114.132.2.289.12l.033.186-1.118.195c-.013-.061-.022-.111-.034-.177l.33-.064Zm-1.225-2.062-.03.005c-.089.411-.177.822-.265 1.25l.941-.167-.646-1.088Zm8.07 37.718c0-.051 0-.088-.006-.136l.223-.045.169.767a.888.888 0 0 0-.088.027c-.12.055-.177 0-.177-.114-.005-.146-.088-.203-.221-.23-.183-.035-.358-.04-.52.063-.26.165-.265.524 0 .667.256.137.536.225.801.345.15.056.293.132.425.225a.893.893 0 0 1 .311.957c-.088.363-.353.56-.699.65a1.274 1.274 0 0 1-.736-.028l.015.165-.229.049-.18-.814.233-.049a.56.56 0 0 1 .03.121c0 .205.13.278.306.313a.844.844 0 0 0 .56-.059c.323-.162.36-.546.057-.742a4.285 4.285 0 0 0-.582-.276c-.199-.088-.407-.162-.599-.264-.46-.25-.605-1.136.106-1.478a1.27 1.27 0 0 1 .628-.121l.173.007Zm5.798-2.483-.083-.163.2-.127c.145.24.286.47.431.712l-.204.13a1.138 1.138 0 0 1-.088-.145.197.197 0 0 0-.207-.121c-.669 0-1.164.523-1.082 1.206.074.618.397 1.09.99 1.334.507.209 1.09.01 1.36-.466a.16.16 0 0 0 0-.205c-.044-.06-.08-.128-.126-.203l.208-.133c.108.177.214.353.325.53-.481.586-1.043 1.007-1.845.965-.629-.034-1.18-.49-1.387-1.133-.224-.697.045-1.43.679-1.848a1.83 1.83 0 0 1 .746-.305.486.486 0 0 0 .083-.028ZM5.893 13.222l-.113-.088.114-.199.69.389-.115.211a1.353 1.353 0 0 1-.16-.088.191.191 0 0 0-.257.008.724.724 0 0 0-.328.441.379.379 0 0 0 .485.457c.26-.094.505-.235.76-.348.152-.076.312-.135.477-.177.38-.077.687.074.913.372.225.297.211.625.055.95a1.26 1.26 0 0 1-.524.562l.129.1-.109.205-.731-.41.119-.21c.07.045.144.084.22.118a.254.254 0 0 0 .176.006c.291-.14.495-.353.497-.7a.384.384 0 0 0-.478-.382c-.23.076-.455.167-.674.273-.18.094-.365.177-.554.25-.337.106-.632 0-.87-.252-.239-.254-.26-.53-.166-.838.078-.257.233-.484.444-.65Zm39.101 6.649-.695.177-.06-.22.33-.094c-.047-.185-.089-.365-.136-.545-.03-.116-.056-.233-.094-.346-.009-.028-.063-.067-.088-.061-.342.08-.68.17-1.037.26l.192.754.31-.075.067.225-.887.227-.066-.224.318-.088-.188-.752-.48.122c-.221.056-.442.116-.662.168-.08.018-.095.05-.07.125.02.068.035.136.047.205l-.17.045-.313-1.236.17-.047.099.348 2.67-.676-.088-.353.176-.042.485 1.878c.154.006.17.026.17.225ZM40.228 31.73l.081-.217.134.027c.263-.703.528-1.406.794-2.11l-.12-.065.084-.22.736.277-.083.227-.37-.136-.295.78 2.506.946.167-.422.167.06c-.176.473-.353.938-.529 1.412l-.168-.063c.044-.119.082-.231.127-.341.023-.059.022-.093-.045-.119-.796-.297-1.59-.596-2.383-.895a.192.192 0 0 0-.05-.005l-.293.769.367.144-.084.228-.743-.277ZM27.489 6.065l.441.089-.023.176-.72-.117a46.345 46.345 0 0 1-.637-.11c-.15-.027-.15-.029-.094-.194l.44.065.447-2.635c-.184-.034-.353-.066-.53-.095-.093-.015-.213-.063-.274-.023-.062.04-.053.17-.076.264l-.022.097-.232-.034c.032-.2.06-.393.094-.583.037-.208.04-.208.265-.15 0 .037 0 .075.005.127l2.216.375.042-.12.231.03c-.043.265-.088.51-.128.774l-.24-.034c.02-.134.039-.25.061-.387l-.823-.14-.443 2.625Zm.266 22.815c-.21.083-.424.177-.646.253-.701.225-1.406.44-2.11.66a1.895 1.895 0 0 0-.734.419v-1.477c.17.05.333.11.503.15.275.063.564.024.812-.111.187-.098.37-.206.554-.307a.848.848 0 0 1 .907.034c.224.136.463.246.714.38Zm13.372-17.127L39 13.383l.273.362-.143.11-.77-1.004.16-.083.12.14 2.125-1.627-.51-.668-.313.236-.148-.19.627-.481.144.183c-.126.077-.06.147 0 .227.403.523.804 1.046 1.203 1.57.024.032.05.06.077.093l.107-.064.147.185-.628.481-.143-.19.306-.244-.507-.666Zm.432 17.216-.177-.038.247-1.263c.172-.013.183 0 .155.144-.012.062-.02.123-.035.216l1.175-.47c-.313-.285-.608-.554-.919-.84l-.088.396-.176-.031.204-1.05c.177-.007.19 0 .15.161a.265.265 0 0 0 .096.31c.312.264.608.553.917.826a.487.487 0 0 0 .216.109c.395.083.795.155 1.185.237.089.018.125 0 .134-.093.012-.08.03-.16.05-.239l.177.034-.25 1.283-.177-.035.058-.346-.601-.122c-.188-.037-.375-.078-.564-.104a.486.486 0 0 0-.242.019c-.463.183-.923.378-1.385.564a.17.17 0 0 0-.12.146.712.712 0 0 1-.03.186Zm-28.174 9.734-.295-.205.101-.148 1.087.73-.099.15-.297-.195-1.5 2.222.854.577.2-.29.195.136-.342.506-1.853-1.243a7.54 7.54 0 0 1 .103-.15l.3.198 1.546-2.288Zm29.099-4.753.088-.16.08-.147.162.082-.625 1.156-.158-.088.167-.319-2.422-1.31c-.06.102-.117.202-.177.312l-.155-.082.625-1.156.155.088-.164.311 2.424 1.313ZM7.147 16.723a.308.308 0 1 1 .009.616.308.308 0 0 1-.009-.616Zm1.835-2.787a.298.298 0 1 1 0-.597.298.298 0 0 1 0 .597Zm13.828.935c.264-.022.52-.047.774-.062.077.004.154.016.23.035-.235.088-.437.164-.64.238a.065.065 0 0 1-.055-.004c-.098-.062-.192-.13-.31-.207Zm-9.513 14.153a.993.993 0 0 1-.08-.207 2.374 2.374 0 0 1 .153-1.368.794.794 0 0 1 .122-.183c-.118.578-.219 1.153-.156 1.743l-.039.015Z" fill="#2B5283"/></g></svg>