<svg width="1107" height="176" xmlns="http://www.w3.org/2000/svg"><defs><linearGradient x1="34.706%" y1="7.129%" x2="61.422%" y2="81.296%" id="a"><stop stop-color="#FFF" offset="0%"/><stop stop-color="#FFF" stop-opacity="0" offset="100%"/></linearGradient><linearGradient x1="61.146%" y1="18.782%" x2="34.556%" y2="91.455%" id="b"><stop stop-color="#FFF" stop-opacity="0" offset="0%"/><stop stop-color="#FFF" offset="100%"/></linearGradient><linearGradient x1="94.063%" y1="50%" x2="17.851%" y2="50%" id="c"><stop stop-color="#FFF" offset="0%"/><stop stop-color="#FFF" stop-opacity="0" offset="100%"/></linearGradient></defs><g fill-rule="nonzero" fill="none"><path d="M308.67 163V39.94h40.53V16H242.94v23.94h40.53V163h25.2zm65.41 0V97.9s6.93-13.44 22.26-13.44c7.35 0 11.97 2.31 11.97 2.31l8.82-22.68s-8.19-3.15-17.22-3.15c-18.48 0-27.09 17.01-27.09 17.01V63.46h-23.94V163h25.2zm92.61 2.52c20.37 0 29.82-17.01 29.82-17.01V163h23.52V63.46h-25.2v66.36S488.11 142 475.09 142c-12.81 0-19.74-6.3-19.74-21V63.46h-25.2v64.47c0 23.94 17.43 37.59 36.54 37.59zm113.18 0c25.41 0 43.47-13.65 43.47-30.66 0-20.58-14.07-27.09-33.81-31.29-16.8-3.57-23.52-5.04-23.52-11.13 0-6.09 8.61-9.45 18.06-9.45 12.85 0 23.779 7.87 24.715 8.562l.06.045.005.003 12.6-18.48s-14.91-12.18-37.38-12.18c-27.3 0-42.84 15.54-42.84 31.08 0 18.9 17.22 27.3 36.96 31.5 15.12 3.15 19.74 4.41 19.74 10.92 0 6.09-8.61 9.03-18.9 9.03-16.8 0-30.03-14.28-30.03-14.28l-14.07 18.27s15.75 18.06 44.94 18.06zm107.36 0c14.49 0 23.94-6.51 23.94-6.51l-9.24-20.58s-4.83 3.57-10.5 3.57c-6.72 0-13.02-3.57-13.02-15.75V86.14h30.03V63.46h-30.03V33.85h-25.2v29.61h-19.53v22.68h19.53v44.1c0 21.21 14.7 35.28 34.02 35.28zm94.65-2.52c27.72 0 49.14-17.64 49.14-43.47 0-26.46-20.79-34.02-22.89-34.44 2.1-.63 15.33-9.24 15.33-27.09 0-30.87-22.89-42-46.83-42h-47.67v147h52.92zm-6.09-86.94h-21.63V39.94h21.63c12.39 0 22.05 5.25 22.05 18.06 0 12.81-7.98 18.06-22.05 18.06zm5.25 63h-26.88V100h26.88c13.86 0 24.36 5.67 24.36 19.53 0 13.86-10.5 19.53-24.36 19.53zM876.06 163V4.24h-25.2V163h25.2zm68.55 2.52c29.61 0 53.13-23.1 53.13-52.29 0-29.4-23.52-52.29-53.13-52.29-29.61 0-53.13 22.89-53.13 52.29 0 29.19 23.52 52.29 53.13 52.29zm0-23.52c-17.01 0-27.51-13.23-27.51-28.77s10.5-28.77 27.51-28.77 27.51 13.23 27.51 28.77S961.62 142 944.61 142zm120.44 23.52c26.88 0 41.16-18.9 41.16-18.9l-16.59-16.8s-7.56 12.18-24.57 12.18-27.93-13.23-27.93-28.77 10.92-28.77 27.93-28.77c15.12 0 23.31 10.5 23.31 10.5l17.43-15.54s-14.07-18.48-40.74-18.48c-29.82 0-53.55 22.89-53.55 52.29 0 29.19 23.73 52.29 53.55 52.29z" fill="#FFF"/><path fill="url(#a)" d="M59.662 7l45 79L96 90.997l-45-79L53 6z"/><path fill="url(#b)" d="M96 85l8.662 4.997-45 79-6.554.373L51 164z"/><path fill="url(#c)" d="M192 83v10h-92V83z"/><path d="M145 0a10 10 0 018.495 4.725l.167.278 45 78a10 10 0 01.162 9.702l-.162.292-45 78a10 10 0 01-8.338 4.998L145 176H55a10 10 0 01-8.495-4.725l-.167-.278-45-78a10 10 0 01-.162-9.702l.162-.292 45-78A10 10 0 0154.676.005L55 0h90zM97.112 93H12.885L55 166h84.228L97.112 93zm50.774-77.998L105.771 88l42.115 72.998L190 88l-42.114-72.998zM139.227 10H55L12.885 83h84.227l42.115-73z" fill="#FFF"/></g></svg>
