<?xml version="1.0" encoding="UTF-8"?>
<svg width="193px" height="44px" viewBox="0 0 193 44" version="1.1" xmlns="http://www.w3.org/2000/svg" xmlns:xlink="http://www.w3.org/1999/xlink">
    <title>15E0C421-CA83-4355-A88B-3DC9B9252FAD@1x</title>
    <g id="🧱-Components" stroke="none" stroke-width="1" fill="none" fill-rule="evenodd">
        <g id="Components-/-Sign-In-Providers-/-FR---Demo---Sign-Up" transform="translate(0.000000, -96.000000)" fill-rule="nonzero">
            <g id="Export" transform="translate(0.000000, 96.000000)">
                <path d="M59.2607422,27 L59.2607422,17.1357422 L57.1962891,17.1357422 L57.1962891,27 L59.2607422,27 Z M63.3007812,27 L63.3007812,22.6455078 C63.3007812,22.3037109 63.3611654,22.007487 63.4819336,21.7568359 C63.6027018,21.5061849 63.7736003,21.3113607 63.9946289,21.1723633 C64.2156576,21.0333659 64.4788411,20.9638672 64.7841797,20.9638672 C65.258138,20.9638672 65.6067708,21.1005859 65.8300781,21.3740234 C66.0533854,21.6474609 66.1650391,22.0507812 66.1650391,22.5839844 L66.1650391,27 L68.1611328,27 L68.1611328,22.1328125 C68.1611328,21.2304688 67.9412435,20.5343424 67.5014648,20.0444336 C67.0616862,19.5545247 66.422526,19.3095703 65.5839844,19.3095703 C65.046224,19.3095703 64.5950521,19.4280599 64.2304688,19.6650391 C63.8658854,19.9020182 63.5970052,20.2255859 63.4238281,20.6357422 L63.3007812,20.6357422 L63.3007812,19.4736328 L61.3046875,19.4736328 L61.3046875,27 L63.3007812,27 Z M72.9326172,27.1640625 C73.5751953,27.1640625 74.1448568,27.0615234 74.6416016,26.8564453 C75.1383464,26.6513672 75.5279948,26.3642578 75.8105469,25.9951172 C76.093099,25.6259766 76.234375,25.1930339 76.234375,24.6962891 L76.234375,24.6894531 C76.234375,24.1334635 76.054362,23.6914062 75.6943359,23.3632812 C75.3343099,23.0351562 74.7783203,22.7890625 74.0263672,22.625 L72.7753906,22.3583984 C72.3880208,22.2763672 72.1145833,22.1715495 71.9550781,22.0439453 C71.7955729,21.9163411 71.7158203,21.7522786 71.7158203,21.5517578 L71.7158203,21.5449219 C71.7158203,21.3763021 71.7670898,21.2304688 71.8696289,21.1074219 C71.972168,20.984375 72.1123047,20.8886719 72.2900391,20.8203125 C72.4677734,20.7519531 72.6705729,20.7177734 72.8984375,20.7177734 C73.2721354,20.7177734 73.5683594,20.7963867 73.7871094,20.9536133 C74.0058594,21.1108398 74.1425781,21.2919922 74.1972656,21.4970703 L74.2041016,21.53125 L76.0566406,21.53125 L76.0566406,21.5039062 C76.0292969,21.0983073 75.8914388,20.730306 75.6430664,20.3999023 C75.394694,20.0694987 75.0403646,19.8051758 74.5800781,19.6069336 C74.1197917,19.4086914 73.5615234,19.3095703 72.9052734,19.3095703 C72.2809245,19.3095703 71.7329102,19.4075521 71.2612305,19.6035156 C70.7895508,19.7994792 70.4226888,20.074056 70.1606445,20.4272461 C69.8986003,20.7804362 69.7675781,21.1940104 69.7675781,21.6679688 L69.7675781,21.6748047 C69.7675781,22.2353516 69.9464518,22.6933594 70.3041992,23.0488281 C70.6619466,23.4042969 71.1985677,23.6595052 71.9140625,23.8144531 L73.171875,24.0810547 C73.5546875,24.1676432 73.828125,24.2770182 73.9921875,24.4091797 C74.15625,24.5413411 74.2382812,24.7076823 74.2382812,24.9082031 L74.2382812,24.921875 C74.2382812,25.0859375 74.1835938,25.2294922 74.0742188,25.3525391 C73.9648438,25.4755859 73.8144531,25.5724284 73.6230469,25.6430664 C73.4316406,25.7137044 73.2083333,25.7490234 72.953125,25.7490234 C72.5611979,25.7490234 72.2501628,25.6738281 72.0200195,25.5234375 C71.7898763,25.3730469 71.6337891,25.1816406 71.5517578,24.9492188 L71.5380859,24.921875 L69.5761719,24.921875 L69.5830078,24.9492188 C69.6285807,25.3776042 69.7869466,25.758138 70.0581055,26.0908203 C70.3292643,26.4235026 70.7052409,26.6855469 71.1860352,26.8769531 C71.6668294,27.0683594 72.2490234,27.1640625 72.9326172,27.1640625 Z M81.0332031,27.1640625 C81.6894531,27.1640625 82.2545573,27.0524089 82.7285156,26.8291016 C83.202474,26.6057943 83.5784505,26.2913411 83.8564453,25.8857422 C84.1344401,25.4801432 84.3098958,25.0061849 84.3828125,24.4638672 L84.3828125,24.4160156 L82.5371094,24.4228516 L82.5234375,24.4433594 C82.436849,24.8261719 82.2705078,25.1132812 82.0244141,25.3046875 C81.7783203,25.4960938 81.4501953,25.5917969 81.0400391,25.5917969 C80.6845703,25.5917969 80.3837891,25.500651 80.1376953,25.3183594 C79.8916016,25.1360677 79.7036133,24.8683268 79.5737305,24.5151367 C79.4438477,24.1619466 79.3789062,23.7324219 79.3789062,23.2265625 L79.3789062,23.2128906 C79.3789062,22.7070312 79.4427083,22.2809245 79.5703125,21.9345703 C79.6979167,21.5882161 79.8859049,21.3250326 80.1342773,21.1450195 C80.3826497,20.9650065 80.6845703,20.875 81.0400391,20.875 C81.4684245,20.875 81.8068034,20.9855143 82.0551758,21.206543 C82.3035482,21.4275716 82.4619141,21.7203776 82.5302734,22.0849609 L82.5371094,22.0986328 L84.3896484,22.0986328 L84.3896484,22.078125 C84.3304036,21.5175781 84.1617839,21.0299479 83.8837891,20.6152344 C83.6057943,20.2005208 83.2275391,19.8792318 82.7490234,19.6513672 C82.2705078,19.4235026 81.6985677,19.3095703 81.0332031,19.3095703 C80.249349,19.3095703 79.5828451,19.4633789 79.0336914,19.7709961 C78.4845378,20.0786133 78.0664062,20.5218099 77.7792969,21.1005859 C77.4921875,21.679362 77.3486328,22.3834635 77.3486328,23.2128906 L77.3486328,23.2265625 C77.3486328,24.0605469 77.4921875,24.7703451 77.7792969,25.355957 C78.0664062,25.941569 78.4845378,26.3893229 79.0336914,26.6992188 C79.5828451,27.0091146 80.249349,27.1640625 81.0332031,27.1640625 Z M87.7871094,27 L87.7871094,22.7890625 C87.7871094,22.4335938 87.8623047,22.1282552 88.0126953,21.8730469 C88.1630859,21.6178385 88.3772786,21.4207357 88.6552734,21.2817383 C88.9332682,21.1427409 89.2613932,21.0732422 89.6396484,21.0732422 C89.7945964,21.0732422 89.9484049,21.0834961 90.1010742,21.1040039 C90.2537435,21.1245117 90.4052734,21.1529948 90.5556641,21.1894531 L90.5556641,19.4462891 C90.4554036,19.4189453 90.340332,19.3961589 90.2104492,19.3779297 C90.0805664,19.3597005 89.9472656,19.3505859 89.8105469,19.3505859 C89.3229167,19.3505859 88.9150391,19.4633789 88.5869141,19.6889648 C88.2587891,19.9145508 88.0332031,20.2324219 87.9101562,20.6425781 L87.7871094,20.6425781 L87.7871094,19.4736328 L85.7910156,19.4736328 L85.7910156,27 L87.7871094,27 Z M92.75,18.3183594 C93.0598958,18.3183594 93.3242188,18.2101237 93.5429688,17.9936523 C93.7617188,17.777181 93.8710938,17.516276 93.8710938,17.2109375 C93.8710938,16.9010417 93.7617188,16.6378581 93.5429688,16.4213867 C93.3242188,16.2049154 93.0598958,16.0966797 92.75,16.0966797 C92.4446615,16.0966797 92.1803385,16.2049154 91.9570312,16.4213867 C91.733724,16.6378581 91.6220703,16.9010417 91.6220703,17.2109375 C91.6220703,17.516276 91.733724,17.777181 91.9570312,17.9936523 C92.1803385,18.2101237 92.4446615,18.3183594 92.75,18.3183594 Z M93.7412109,27 L93.7412109,19.4736328 L91.7451172,19.4736328 L91.7451172,27 L93.7412109,27 Z M97.5966797,29.4951172 L97.5966797,25.796875 L97.7197266,25.796875 C97.8473307,26.0703125 98.0216471,26.305013 98.2426758,26.5009766 C98.4637044,26.6969401 98.7211914,26.8496094 99.0151367,26.9589844 C99.309082,27.0683594 99.6292318,27.1230469 99.9755859,27.1230469 C100.609049,27.1230469 101.153646,26.9669596 101.609375,26.6547852 C102.065104,26.3426107 102.416016,25.8971354 102.662109,25.3183594 C102.908203,24.7395833 103.03125,24.046875 103.03125,23.2402344 L103.03125,23.2265625 C103.03125,22.4244792 102.907064,21.7351888 102.658691,21.1586914 C102.410319,20.582194 102.058268,20.1367188 101.602539,19.8222656 C101.14681,19.5078125 100.604492,19.3505859 99.9755859,19.3505859 C99.6201172,19.3505859 99.2965495,19.4018555 99.0048828,19.5043945 C98.7132161,19.6069336 98.4591471,19.7539062 98.2426758,19.9453125 C98.0262044,20.1367188 97.851888,20.366862 97.7197266,20.6357422 L97.5966797,20.6357422 L97.5966797,19.4736328 L95.6005859,19.4736328 L95.6005859,29.4951172 L97.5966797,29.4951172 Z M99.2919922,25.4619141 C98.945638,25.4619141 98.6437174,25.3730469 98.3862305,25.1953125 C98.1287435,25.0175781 97.929362,24.7612305 97.7880859,24.4262695 C97.6468099,24.0913086 97.5761719,23.6959635 97.5761719,23.2402344 L97.5761719,23.2265625 C97.5761719,22.7617188 97.6456706,22.3640951 97.784668,22.0336914 C97.9236654,21.7032878 98.1219076,21.4492188 98.3793945,21.2714844 C98.6368815,21.09375 98.9410807,21.0048828 99.2919922,21.0048828 C99.6474609,21.0048828 99.9516602,21.09375 100.20459,21.2714844 C100.45752,21.4492188 100.653483,21.7044271 100.79248,22.0371094 C100.931478,22.3697917 101.000977,22.766276 101.000977,23.2265625 L101.000977,23.2402344 C101.000977,23.7005208 100.931478,24.0970052 100.79248,24.4296875 C100.653483,24.7623698 100.45752,25.0175781 100.20459,25.1953125 C99.9516602,25.3730469 99.6474609,25.4619141 99.2919922,25.4619141 Z M107.631836,27.0273438 C107.827799,27.0273438 108.01237,27.0182292 108.185547,27 C108.358724,26.9817708 108.506836,26.961263 108.629883,26.9384766 L108.629883,25.4550781 C108.53418,25.4641927 108.444173,25.472168 108.359863,25.4790039 C108.275553,25.4858398 108.169596,25.4892578 108.041992,25.4892578 C107.704753,25.4892578 107.459798,25.4106445 107.307129,25.253418 C107.15446,25.0961914 107.078125,24.8489583 107.078125,24.5117188 L107.078125,20.9775391 L108.629883,20.9775391 L108.629883,19.4736328 L107.078125,19.4736328 L107.078125,17.6757812 L105.061523,17.6757812 L105.061523,19.4736328 L103.899414,19.4736328 L103.899414,20.9775391 L105.061523,20.9775391 L105.061523,24.9697266 C105.061523,25.6988932 105.262044,26.2241211 105.663086,26.5454102 C106.064128,26.8666992 106.720378,27.0273438 107.631836,27.0273438 Z M111.152344,18.3183594 C111.46224,18.3183594 111.726562,18.2101237 111.945312,17.9936523 C112.164062,17.777181 112.273438,17.516276 112.273438,17.2109375 C112.273438,16.9010417 112.164062,16.6378581 111.945312,16.4213867 C111.726562,16.2049154 111.46224,16.0966797 111.152344,16.0966797 C110.847005,16.0966797 110.582682,16.2049154 110.359375,16.4213867 C110.136068,16.6378581 110.024414,16.9010417 110.024414,17.2109375 C110.024414,17.516276 110.136068,17.777181 110.359375,17.9936523 C110.582682,18.2101237 110.847005,18.3183594 111.152344,18.3183594 Z M112.143555,27 L112.143555,19.4736328 L110.147461,19.4736328 L110.147461,27 L112.143555,27 Z M117.345703,27.1640625 C118.120443,27.1640625 118.784668,27.0068359 119.338379,26.6923828 C119.89209,26.3779297 120.317057,25.9278971 120.613281,25.3422852 C120.909505,24.7566732 121.057617,24.0559896 121.057617,23.2402344 L121.057617,23.2265625 C121.057617,22.4153646 120.907227,21.7169596 120.606445,21.1313477 C120.305664,20.5457357 119.878418,20.0957031 119.324707,19.78125 C118.770996,19.4667969 118.111328,19.3095703 117.345703,19.3095703 C116.580078,19.3095703 115.92041,19.4679362 115.366699,19.784668 C114.812988,20.1013997 114.385742,20.5514323 114.084961,21.1347656 C113.78418,21.718099 113.633789,22.4153646 113.633789,23.2265625 L113.633789,23.2402344 C113.633789,24.0559896 113.781901,24.7566732 114.078125,25.3422852 C114.374349,25.9278971 114.800456,26.3779297 115.356445,26.6923828 C115.912435,27.0068359 116.575521,27.1640625 117.345703,27.1640625 Z M117.345703,25.5917969 C116.990234,25.5917969 116.688314,25.4995117 116.439941,25.3149414 C116.191569,25.1303711 116.002441,24.8626302 115.872559,24.5117188 C115.742676,24.1608073 115.677734,23.7369792 115.677734,23.2402344 L115.677734,23.2265625 C115.677734,22.734375 115.743815,22.3139648 115.875977,21.965332 C116.008138,21.6166992 116.198405,21.347819 116.446777,21.1586914 C116.69515,20.9695638 116.994792,20.875 117.345703,20.875 C117.696615,20.875 117.996257,20.9695638 118.244629,21.1586914 C118.493001,21.347819 118.683268,21.6166992 118.81543,21.965332 C118.947591,22.3139648 119.013672,22.734375 119.013672,23.2265625 L119.013672,23.2402344 C119.013672,23.7324219 118.947591,24.1539714 118.81543,24.5048828 C118.683268,24.8557943 118.494141,25.1246745 118.248047,25.3115234 C118.001953,25.4983724 117.701172,25.5917969 117.345703,25.5917969 Z M124.523438,27 L124.523438,22.6455078 C124.523438,22.3037109 124.583822,22.007487 124.70459,21.7568359 C124.825358,21.5061849 124.996257,21.3113607 125.217285,21.1723633 C125.438314,21.0333659 125.701497,20.9638672 126.006836,20.9638672 C126.480794,20.9638672 126.829427,21.1005859 127.052734,21.3740234 C127.276042,21.6474609 127.387695,22.0507812 127.387695,22.5839844 L127.387695,27 L129.383789,27 L129.383789,22.1328125 C129.383789,21.2304688 129.1639,20.5343424 128.724121,20.0444336 C128.284342,19.5545247 127.645182,19.3095703 126.806641,19.3095703 C126.26888,19.3095703 125.817708,19.4280599 125.453125,19.6650391 C125.088542,19.9020182 124.819661,20.2255859 124.646484,20.6357422 L124.523438,20.6357422 L124.523438,19.4736328 L122.527344,19.4736328 L122.527344,27 L124.523438,27 Z M136.670898,27.1230469 C136.999023,27.1230469 137.303223,27.077474 137.583496,26.9863281 C137.86377,26.8951823 138.109863,26.7664388 138.321777,26.6000977 C138.533691,26.4337565 138.703451,26.234375 138.831055,26.0019531 L138.954102,26.0019531 L138.954102,27 L140.922852,27 L140.922852,21.859375 C140.922852,21.3261719 140.800944,20.8693034 140.557129,20.4887695 C140.313314,20.1082357 139.958984,19.816569 139.494141,19.6137695 C139.029297,19.4109701 138.464193,19.3095703 137.798828,19.3095703 C137.169922,19.3095703 136.61735,19.4007161 136.141113,19.5830078 C135.664876,19.7652995 135.286621,20.0205078 135.006348,20.3486328 C134.726074,20.6767578 134.558594,21.061849 134.503906,21.5039062 L134.49707,21.5654297 L136.342773,21.5654297 L136.356445,21.5380859 C136.433919,21.3147786 136.585449,21.1427409 136.811035,21.0219727 C137.036621,20.9012044 137.329427,20.8408203 137.689453,20.8408203 C138.099609,20.8408203 138.412923,20.9285482 138.629395,21.1040039 C138.845866,21.2794596 138.954102,21.53125 138.954102,21.859375 L138.954,22.48 L137.135742,22.5908203 C136.201497,22.6455078 135.481445,22.8653971 134.975586,23.2504883 C134.469727,23.6355794 134.216797,24.1676432 134.216797,24.8466797 L134.216797,24.8603516 C134.216797,25.3160807 134.321615,25.7137044 134.53125,26.0532227 C134.740885,26.3927409 135.031413,26.6559245 135.402832,26.8427734 C135.774251,27.0296224 136.19694,27.1230469 136.670898,27.1230469 Z M137.34082,25.6601562 C136.994466,25.6601562 136.711914,25.578125 136.493164,25.4140625 C136.274414,25.25 136.165039,25.0244141 136.165039,24.7373047 L136.165039,24.7236328 C136.165039,24.4501953 136.269857,24.233724 136.479492,24.0742188 C136.689128,23.9147135 137.008138,23.8235677 137.436523,23.8007812 L138.954,23.701 L138.954102,24.2587891 C138.954102,24.523112 138.883464,24.7612305 138.742188,24.9731445 C138.600911,25.1850586 138.409505,25.3525391 138.167969,25.4755859 C137.926432,25.5986328 137.650716,25.6601562 137.34082,25.6601562 Z M145.21582,27.1640625 C145.753581,27.1640625 146.20931,27.0455729 146.583008,26.8085938 C146.956706,26.5716146 147.227865,26.2480469 147.396484,25.8378906 L147.519531,25.8378906 L147.519531,27 L149.515625,27 L149.515625,19.4736328 L147.519531,19.4736328 L147.519531,23.8212891 C147.519531,24.1585286 147.461426,24.4536133 147.345215,24.706543 C147.229004,24.9594727 147.058105,25.1554362 146.83252,25.2944336 C146.606934,25.433431 146.330078,25.5029297 146.001953,25.5029297 C145.527995,25.5029297 145.185059,25.3662109 144.973145,25.0927734 C144.76123,24.8193359 144.655273,24.4160156 144.655273,23.8828125 L144.655273,19.4736328 L142.65918,19.4736328 L142.65918,24.3408203 C142.65918,24.9378255 142.754883,25.4471029 142.946289,25.8686523 C143.137695,26.2902018 143.423665,26.6114909 143.804199,26.8325195 C144.184733,27.0535482 144.655273,27.1640625 145.21582,27.1640625 Z M157.506836,27.1230469 C158.040039,27.1230469 158.500326,27.0091146 158.887695,26.78125 C159.275065,26.5533854 159.564453,26.2366536 159.755859,25.8310547 L159.878906,25.8310547 L159.878906,27 L161.875,27 L161.875,16.5957031 L159.878906,16.5957031 L159.878906,20.6767578 L159.755859,20.6767578 C159.56901,20.2666016 159.276204,19.9430339 158.877441,19.7060547 C158.478678,19.4690755 158.02181,19.3505859 157.506836,19.3505859 C156.868815,19.3505859 156.32194,19.5055339 155.866211,19.8154297 C155.410482,20.1253255 155.06071,20.5696615 154.816895,21.1484375 C154.573079,21.7272135 154.451172,22.4199219 154.451172,23.2265625 L154.451172,23.2402344 C154.451172,24.0423177 154.575358,24.7327474 154.82373,25.3115234 C155.072103,25.8902995 155.425293,26.3369141 155.883301,26.6513672 C156.341309,26.9658203 156.882487,27.1230469 157.506836,27.1230469 Z M158.183594,25.4619141 C157.832682,25.4619141 157.529622,25.3730469 157.274414,25.1953125 C157.019206,25.0175781 156.823242,24.7623698 156.686523,24.4296875 C156.549805,24.0970052 156.481445,23.7005208 156.481445,23.2402344 L156.481445,23.2265625 C156.481445,22.766276 156.549805,22.370931 156.686523,22.0405273 C156.823242,21.7101237 157.020345,21.4549154 157.277832,21.2749023 C157.535319,21.0948893 157.83724,21.0048828 158.183594,21.0048828 C158.534505,21.0048828 158.838704,21.0948893 159.096191,21.2749023 C159.353678,21.4549154 159.551921,21.7101237 159.690918,22.0405273 C159.829915,22.370931 159.899414,22.7685547 159.899414,23.2333984 L159.899414,23.2470703 C159.899414,23.7027995 159.829915,24.0970052 159.690918,24.4296875 C159.551921,24.7623698 159.354818,25.0175781 159.099609,25.1953125 C158.844401,25.3730469 158.539062,25.4619141 158.183594,25.4619141 Z M167.644531,18.4619141 L169.3125,16.0488281 L167.425781,16.0488281 L166.236328,18.4619141 L167.644531,18.4619141 Z M167.097656,27.1640625 C167.649089,27.1640625 168.126465,27.0934245 168.529785,26.9521484 C168.933105,26.8108724 169.270345,26.6285807 169.541504,26.4052734 C169.812663,26.1819661 170.025716,25.941569 170.180664,25.684082 C170.335612,25.4265951 170.442708,25.179362 170.501953,24.9423828 L170.515625,24.8740234 L168.65625,24.8740234 L168.635742,24.9150391 C168.590169,25.0107422 168.50472,25.1166992 168.379395,25.2329102 C168.254069,25.3491211 168.088867,25.4505208 167.883789,25.5371094 C167.678711,25.6236979 167.430339,25.6669922 167.138672,25.6669922 C166.778646,25.6669922 166.46875,25.5872396 166.208984,25.4277344 C165.949219,25.2682292 165.748698,25.0380859 165.607422,24.7373047 C165.489692,24.4866536 165.421016,24.193278 165.401394,23.8571777 L165.397,23.712 L170.577148,23.7119141 L170.577148,23.0898438 C170.577148,22.328776 170.433594,21.6656901 170.146484,21.1005859 C169.859375,20.5354818 169.449219,20.0957031 168.916016,19.78125 C168.382812,19.4667969 167.749349,19.3095703 167.015625,19.3095703 C166.286458,19.3095703 165.651855,19.4713542 165.111816,19.7949219 C164.571777,20.1184896 164.154785,20.5742188 163.86084,21.1621094 C163.566895,21.75 163.419922,22.4427083 163.419922,23.2402344 L163.419922,23.2470703 C163.419922,24.0537109 163.568034,24.7486979 163.864258,25.3320312 C164.160482,25.9153646 164.583171,26.3665365 165.132324,26.6855469 C165.681478,27.0045573 166.336589,27.1640625 167.097656,27.1640625 Z M168.664,22.461 L165.416,22.461 L165.419434,22.4286567 C165.451335,22.1668656 165.515137,21.9349501 165.61084,21.7329102 C165.754395,21.4298503 165.950358,21.199707 166.19873,21.0424805 C166.447103,20.8852539 166.730794,20.8066406 167.049805,20.8066406 C167.373372,20.8066406 167.657064,20.8829753 167.900879,21.0356445 C168.144694,21.1883138 168.3361,21.4150391 168.475098,21.7158203 C168.567763,21.9163411 168.629539,22.1502821 168.660428,22.4176432 L168.664,22.461 Z M174.049805,27 L174.049805,22.4609375 C174.049805,22.1738281 174.106771,21.9174805 174.220703,21.6918945 C174.334635,21.4663086 174.490723,21.2885742 174.688965,21.1586914 C174.887207,21.0288086 175.116211,20.9638672 175.375977,20.9638672 C175.763346,20.9638672 176.066406,21.0766602 176.285156,21.3022461 C176.503906,21.527832 176.613281,21.8411458 176.613281,22.2421875 L176.613281,27 L178.609375,27 L178.609375,22.3720703 C178.609375,22.0986328 178.664062,21.8570964 178.773438,21.6474609 C178.882812,21.4378255 179.036621,21.2714844 179.234863,21.1484375 C179.433105,21.0253906 179.666667,20.9638672 179.935547,20.9638672 C180.354818,20.9638672 180.666992,21.0777995 180.87207,21.3056641 C181.077148,21.5335286 181.179688,21.8753255 181.179688,22.3310547 L181.179688,27 L183.175781,27 L183.175781,21.8320312 C183.175781,21.3125 183.07666,20.8647461 182.878418,20.4887695 C182.680176,20.112793 182.399902,19.8222656 182.037598,19.6171875 C181.675293,19.4121094 181.24349,19.3095703 180.742188,19.3095703 C180.391276,19.3095703 180.06543,19.3676758 179.764648,19.4838867 C179.463867,19.6000977 179.201823,19.7618815 178.978516,19.9692383 C178.755208,20.1765951 178.586589,20.4192708 178.472656,20.6972656 L178.349609,20.6972656 C178.244792,20.405599 178.094401,20.1572266 177.898438,19.9521484 C177.702474,19.7470703 177.465495,19.5887044 177.1875,19.4770508 C176.909505,19.3653971 176.599609,19.3095703 176.257812,19.3095703 C175.765625,19.3095703 175.334961,19.4269206 174.96582,19.6616211 C174.59668,19.8963216 174.332357,20.2255859 174.172852,20.6494141 L174.049805,20.6494141 L174.049805,19.4736328 L172.053711,19.4736328 L172.053711,27 L174.049805,27 Z M188.295898,27.1640625 C189.070638,27.1640625 189.734863,27.0068359 190.288574,26.6923828 C190.842285,26.3779297 191.267253,25.9278971 191.563477,25.3422852 C191.859701,24.7566732 192.007812,24.0559896 192.007812,23.2402344 L192.007812,23.2265625 C192.007812,22.4153646 191.857422,21.7169596 191.556641,21.1313477 C191.255859,20.5457357 190.828613,20.0957031 190.274902,19.78125 C189.721191,19.4667969 189.061523,19.3095703 188.295898,19.3095703 C187.530273,19.3095703 186.870605,19.4679362 186.316895,19.784668 C185.763184,20.1013997 185.335938,20.5514323 185.035156,21.1347656 C184.734375,21.718099 184.583984,22.4153646 184.583984,23.2265625 L184.583984,23.2402344 C184.583984,24.0559896 184.732096,24.7566732 185.02832,25.3422852 C185.324544,25.9278971 185.750651,26.3779297 186.306641,26.6923828 C186.86263,27.0068359 187.525716,27.1640625 188.295898,27.1640625 Z M188.295898,25.5917969 C187.94043,25.5917969 187.638509,25.4995117 187.390137,25.3149414 C187.141764,25.1303711 186.952637,24.8626302 186.822754,24.5117188 C186.692871,24.1608073 186.62793,23.7369792 186.62793,23.2402344 L186.62793,23.2265625 C186.62793,22.734375 186.69401,22.3139648 186.826172,21.965332 C186.958333,21.6166992 187.1486,21.347819 187.396973,21.1586914 C187.645345,20.9695638 187.944987,20.875 188.295898,20.875 C188.64681,20.875 188.946452,20.9695638 189.194824,21.1586914 C189.443197,21.347819 189.633464,21.6166992 189.765625,21.965332 C189.897786,22.3139648 189.963867,22.734375 189.963867,23.2265625 L189.963867,23.2402344 C189.963867,23.7324219 189.897786,24.1539714 189.765625,24.5048828 C189.633464,24.8557943 189.444336,25.1246745 189.198242,25.3115234 C188.952148,25.4983724 188.651367,25.5917969 188.295898,25.5917969 Z" id="Inscriptionaudémo" fill="#190C21"></path>
                <g id="Group" transform="translate(16.000000, 10.000000)" fill="#000000">
                    <g id="Icon" transform="translate(3.000000, 3.000000)">
                        <path d="M9,0 L16.2174396,3.56512076 L18,11.5758744 L13.0053768,18 L4.99462319,18 L0,11.5758744 L1.78256038,3.56512076 L9,0 Z M9,2 L3.38643585,4.7728717 L2,11.0034578 L5.88470692,16 L12.1152931,16 L16,11.0034578 L14.6135642,4.7728717 L9,2 Z M9,7 C10.1045695,7 11,7.8954305 11,9 C11,10.1045695 10.1045695,11 9,11 C7.8954305,11 7,10.1045695 7,9 C7,7.8954305 7.8954305,7 9,7 Z" id="Combined-Shape"></path>
                    </g>
                </g>
            </g>
        </g>
    </g>
</svg>